<svg width="27" height="29" viewBox="0 0 27 29" fill="none" xmlns="http://www.w3.org/2000/svg">
<g clip-path="url(#clip0_939_11882)">
<path d="M26.9863 14.7585C26.9863 13.6265 26.8945 12.8004 26.6957 11.9438H13.7695V17.053H21.3569C21.204 18.3227 20.3779 20.2349 18.5422 21.5198L18.5165 21.6909L22.6035 24.857L22.8867 24.8853C25.4872 22.4836 26.9863 18.9499 26.9863 14.7585" fill="#4285F4"/>
<path d="M13.7678 28.2201C17.485 28.2201 20.6056 26.9962 22.8849 24.8853L18.5405 21.5198C17.3779 22.3306 15.8176 22.8966 13.7678 22.8966C10.1271 22.8966 7.03703 20.495 5.93552 17.1755L5.77407 17.1892L1.52433 20.4781L1.46875 20.6326C3.73272 25.1299 8.3831 28.2201 13.7678 28.2201Z" fill="#34A853"/>
<path d="M5.93527 17.1755C5.64463 16.3188 5.47643 15.4009 5.47643 14.4525C5.47643 13.5041 5.64463 12.5863 5.91998 11.7296L5.91229 11.5472L1.60929 8.20543L1.4685 8.2724C0.53541 10.1387 0 12.2344 0 14.4525C0 16.6706 0.53541 18.7663 1.4685 20.6326L5.93527 17.1755" fill="#FBBC05"/>
<path d="M13.7678 6.00842C16.353 6.00842 18.0968 7.12511 19.0912 8.05831L22.9767 4.26457C20.5904 2.04647 17.485 0.685013 13.7678 0.685013C8.3831 0.685013 3.73272 3.77503 1.46875 8.27239L5.92023 11.7296C7.03703 8.41012 10.1271 6.00842 13.7678 6.00842" fill="#EB4335"/>
</g>
<defs>
<clipPath id="clip0_939_11882">
<rect width="27" height="27.63" fill="white" transform="translate(0 0.685013)"/>
</clipPath>
</defs>
</svg>
