<svg width="473" height="1024" viewBox="0 0 473 1024" fill="none" xmlns="http://www.w3.org/2000/svg">
<rect y="-3" width="473" height="1027" fill="#706293" fill-opacity="0.4"/>
<path d="M107.902 75.7583L79.642 0H0V566.925L4.11055 580.182L7.70729 591.546L17.4698 626.269L25.1771 656.572L39.0503 707.078L51.3819 753.795L64.2274 799.882L78.1005 845.968L94.0289 897.105L106.361 938.141L123.317 984.858L135.134 1018.32L137.19 1024H409L387.933 981.702L383.309 972.863L379.198 962.762L374.574 952.661L368.408 940.034L347.856 887.635L328.33 832.079L324.22 819.453L319.082 803.669L313.43 786.624L308.805 770.841L305.209 756.952L296.987 731.699L290.822 707.709L279.004 667.305L232.76 497.48L203.472 386.999L166.477 256.947L129.996 136.996L107.902 75.7583Z" fill="#674EA7" fill-opacity="0.8" stroke="#674EA7" stroke-width="1.18844"/>
</svg>
