<svg width="661" height="660" viewBox="0 0 661 660" fill="none" xmlns="http://www.w3.org/2000/svg">
<path d="M96.8053 616C225.879 674.665 435.127 674.665 564.2 616C693.274 557.335 693.259 462.101 564.2 403.406C435.142 344.71 225.879 344.74 96.8053 403.406C-32.2684 462.071 -32.2684 557.335 96.8053 616Z" fill="#F5F5F5"/>
<path d="M553.851 536.11C596.374 536.11 630.846 519.704 630.846 499.466C630.846 479.229 596.374 462.823 553.851 462.823C511.327 462.823 476.855 479.229 476.855 499.466C476.855 519.704 511.327 536.11 553.851 536.11Z" fill="#E0E0E0"/>
<path d="M102.62 555.229C145.144 555.229 179.616 538.823 179.616 518.586C179.616 498.348 145.144 481.942 102.62 481.942C60.097 481.942 25.625 498.348 25.625 518.586C25.625 538.823 60.097 555.229 102.62 555.229Z" fill="#E0E0E0"/>
<path d="M56.8727 510.823H70.9883V486.695H56.8727V510.823Z" fill="#B16668"/>
<path d="M114.582 492.561L128.698 493.042L129.406 467.516L114.582 467.034V492.561Z" fill="#B16668"/>
<path d="M61.0902 315.603C61.0902 329.051 61.7982 407.031 61.7982 407.031C61.4668 410.897 57.7459 417.786 57.4446 431.731C57.0228 451.948 56.2695 498.775 56.2695 498.775C58.7076 499.967 61.3778 500.612 64.0923 500.664C66.8069 500.716 69.4998 500.174 71.9819 499.075C71.9819 499.075 86.9411 432.483 89.472 412.506C91.6714 395.027 95.4978 347.568 95.4978 347.568L106.284 406.625C104.627 413.969 104.014 421.509 104.461 429.023C105.124 438.274 113.711 484.68 113.711 484.68C116.171 486.067 118.906 486.897 121.722 487.113C124.538 487.329 127.368 486.924 130.011 485.928C130.011 485.928 130.855 413.123 131.005 404.699C131.201 395.012 126.968 311.692 126.968 311.692L61.0902 315.603Z" fill="#37474F"/>
<path d="M70.9876 503.873V501.858C71.7408 501.858 72.2078 502.595 72.494 504.4C72.6944 505.742 72.9659 507.073 73.3075 508.386C73.9396 510.854 74.7657 513.268 75.7781 515.607C77.7666 520.51 79.4388 522.346 84.0185 528.077C85.5801 529.667 87.044 531.349 88.4023 533.116C89.2459 534.62 89.5472 538.847 88.101 539.81C82.7681 543.36 74.6784 543.465 68.9538 541.78C66.8207 541.188 64.9035 539.995 63.4315 538.344C61.9595 536.693 60.9949 534.653 60.6532 532.469C60.4423 531.16 60.5176 529.837 60.367 528.528C59.8717 525.556 58.6621 522.748 56.8419 520.345C55.7737 518.945 54.8642 517.432 54.1302 515.832C52.9401 512.929 53.8892 509.68 54.6424 506.807C55.3053 504.31 56.0133 501.572 56.8569 501.813V503.317C58.8708 504.892 61.3643 505.731 63.9222 505.694C66.0012 505.859 71.0026 505.438 70.9876 503.873Z" fill="#263238"/>
<path d="M128.849 488.697C129.572 488.697 130.175 489.765 131.862 491.51C134.277 493.959 137.082 495.992 140.162 497.527C145.45 500.174 155.724 504.235 160.364 506.326C163.272 507.635 163.136 511.14 160.138 513.125C157.14 515.111 149.879 516.555 141.187 514.63C136.442 513.577 130.265 509.199 126.363 509.44C122.462 509.681 115.14 509.621 112.263 507.635C109.385 505.649 110.53 501.407 111.344 497.767C112.233 493.781 113.347 487.584 114.658 487.854V489.223C116.36 491.795 125.113 492.833 128.849 490.953V488.697Z" fill="#263238"/>
<path d="M95.4219 347.568C102.693 345.287 109.377 341.447 115.006 336.316C115.006 336.316 111.21 343.401 99.9413 350.005L105.395 402.533L95.4219 347.568Z" fill="#263238"/>
<path d="M117.852 283.413C108.632 252.756 110.455 226.793 108.723 218.851L132.359 251.808C133.359 262.671 134.974 273.469 137.195 284.15C139.922 295.868 143.642 310.474 148.102 319.559C148.911 321.16 150.276 322.412 151.943 323.079C156.462 324.899 158.481 327.201 162.051 329.833C164.853 331.909 166.978 332.18 166.812 333.022C166.502 333.97 165.847 334.767 164.976 335.255C164.106 335.742 163.083 335.885 162.112 335.655C159.956 335.204 157.862 334.497 155.875 333.549C157.879 336.945 160.423 339.993 163.407 342.574C170.247 348.516 171.226 352.713 159.867 354.774C152.741 356.082 146.309 352.668 138.189 337.896C135.113 332.52 132.43 326.93 130.16 321.169C124.736 306.127 120.639 292.694 117.852 283.413Z" fill="#B16668"/>
<path d="M106.809 211.225C114.145 212.518 121.406 214.233 125.911 221.273C130.415 228.313 136.923 261.541 136.923 261.541C136.923 261.541 127.462 268.175 116.616 267.889L106.809 211.225Z" fill="#5A189A"/>
<path opacity="0.1" d="M106.809 211.225C114.145 212.518 121.406 214.233 125.911 221.273C130.415 228.313 136.923 261.541 136.923 261.541C136.923 261.541 127.462 268.175 116.616 267.889L106.809 211.225Z" fill="#5A189A"/>
<path d="M56.2534 223.574C51.3273 227.079 25.3408 285.684 24.3466 289.761C23.0058 295.311 23.6235 301.524 26.3502 303.54C29.0769 305.555 35.0876 302.667 38.2361 299.598C44.262 293.582 65.3525 249.748 65.3525 249.748L56.2534 223.574Z" fill="#9A4A4D"/>
<path d="M82.0877 211.359C70.036 214.247 54.9714 219.076 49.5933 230.087C44.2152 241.098 36.0352 258.983 36.0352 258.983C41.6094 264.413 48.4085 268.427 55.8602 270.686L61.886 260.156L60.9972 315.813C70.7139 322.883 106.402 326.734 126.86 311.812C126.86 311.812 124.359 245.084 124.359 234.69C124.359 224.295 118.574 211.825 102.621 210.893L82.0877 211.359Z" fill="#5A189A"/>
<path opacity="0.1" d="M61.976 260.022C61.976 260.022 68.0018 249.627 69.2823 247.115L61.75 272.687L61.976 260.022Z" fill="black"/>
<path d="M104.927 184.343C115.635 184.343 124.315 175.676 124.315 164.984C124.315 154.292 115.635 145.624 104.927 145.624C94.2194 145.624 85.5391 154.292 85.5391 164.984C85.5391 175.676 94.2194 184.343 104.927 184.343Z" fill="#263238"/>
<path d="M71.3945 178.747C71.3945 178.747 74.543 193.489 75.8085 195.91C76.6445 197.406 78.0259 198.521 79.665 199.024L79.4541 188.66L71.3945 178.747Z" fill="#263238"/>
<path d="M75.3419 157.628C74.2422 157.503 73.1284 157.629 72.0845 157.996C71.0406 158.363 70.094 158.963 69.3161 159.749C66.74 162.382 68.1862 170.655 71.395 178.748L77.3154 179.425L75.3419 157.628Z" fill="#263238"/>
<path d="M79.0928 179.439C77.9027 180.146 76.2154 177.86 74.7542 176.341C73.2929 174.821 68.5023 172.715 66.1221 177.725C63.7419 182.734 68.2312 189.593 71.9973 190.781C78.4751 192.812 79.5296 188.66 79.5296 188.66L79.9967 212.728C88.0562 223.047 110.427 222.175 101.087 211.404V204.289C103.975 204.757 106.904 204.908 109.825 204.741C114.6 204.004 117.598 200.228 119.044 195.099C121.364 186.825 122.253 180.056 120.279 163.855C118.125 146.015 97.336 145.805 86.1129 152.89C74.8897 159.975 79.0928 179.439 79.0928 179.439Z" fill="#B16668"/>
<path d="M79.091 181.425C78.4885 181.425 76.2288 177.679 74.7524 176.341C72.7036 174.475 75.3399 157.628 75.3399 157.628C74.6464 156.154 74.4107 154.507 74.6631 152.899C74.9155 151.29 75.6444 149.794 76.756 148.603C79.558 145.519 83.4748 141.743 96.1894 143.247C105.228 144.33 115.141 147.143 123.125 143.247C123.867 145.847 123.813 148.608 122.97 151.176C122.127 153.744 120.534 156.002 118.395 157.658C118.395 157.658 115.502 159.508 107.849 160.441C100.822 160.967 93.7607 160.831 86.7589 160.035C84.5595 159.734 84.0925 161.87 82.9024 167.691C81.9684 172.731 81.0946 181.395 79.091 181.425Z" fill="#263238"/>
<path d="M75.3544 158.936L68.1836 155.086C68.4139 154.605 68.739 154.176 69.1394 153.824C69.5398 153.472 70.0072 153.205 70.5136 153.038C71.02 152.871 71.555 152.807 72.0866 152.852C72.6181 152.896 73.1352 153.047 73.6069 153.296C74.5693 153.83 75.2882 154.715 75.6137 155.766C75.9392 156.817 75.8463 157.952 75.3544 158.936Z" fill="#263238"/>
<path d="M101.009 204.274C101.009 204.274 90.3731 202.138 86.6521 200.167C84.4628 199.027 82.6677 197.255 81.5 195.083C82.0621 197.263 83.0558 199.309 84.4225 201.1C87.1492 204.575 100.994 207.117 100.994 207.117L101.009 204.274Z" fill="#9A4A4D"/>
<path d="M98.4359 176.762C98.444 177.338 98.2236 177.894 97.8229 178.308C97.4221 178.722 96.8735 178.961 96.2968 178.973C95.7266 178.95 95.1879 178.706 94.7944 178.294C94.4009 177.881 94.1833 177.332 94.1877 176.762C94.1796 176.186 94.4 175.63 94.8008 175.216C95.2016 174.802 95.7502 174.563 96.3269 174.551C96.897 174.574 97.4357 174.818 97.8293 175.231C98.2228 175.643 98.4403 176.192 98.4359 176.762Z" fill="#263238"/>
<path d="M96.1883 168.729L91.6689 171.256C91.3405 170.631 91.2669 169.903 91.4634 169.225C91.66 168.546 92.1114 167.97 92.7234 167.616C93.0229 167.456 93.3515 167.358 93.6898 167.328C94.0281 167.297 94.369 167.335 94.6923 167.439C95.0156 167.543 95.3147 167.71 95.5717 167.932C95.8287 168.154 96.0384 168.425 96.1883 168.729Z" fill="#263238"/>
<path d="M100.048 191.488L104.929 193.308C104.824 193.636 104.654 193.939 104.428 194.199C104.203 194.46 103.927 194.671 103.617 194.822C103.307 194.972 102.97 195.058 102.625 195.075C102.281 195.091 101.937 195.038 101.614 194.918C100.958 194.662 100.428 194.16 100.135 193.52C99.8427 192.88 99.8113 192.151 100.048 191.488Z" fill="#9A4A4D"/>
<path d="M117.478 170.504L113.32 167.315C113.513 167.032 113.763 166.791 114.053 166.608C114.343 166.425 114.668 166.304 115.007 166.252C115.346 166.2 115.692 166.218 116.024 166.305C116.356 166.392 116.666 166.546 116.936 166.759C117.489 167.195 117.853 167.827 117.954 168.524C118.055 169.22 117.884 169.929 117.478 170.504Z" fill="#263238"/>
<path d="M116.194 176.175C116.177 176.593 116.036 176.996 115.791 177.336C115.545 177.675 115.205 177.935 114.813 178.082C114.421 178.23 113.994 178.26 113.585 178.168C113.176 178.075 112.804 177.865 112.514 177.563C112.223 177.261 112.028 176.881 111.953 176.469C111.877 176.057 111.925 175.632 112.089 175.247C112.253 174.862 112.527 174.534 112.877 174.303C113.226 174.072 113.636 173.949 114.055 173.948C114.342 173.954 114.625 174.016 114.888 174.131C115.151 174.246 115.388 174.412 115.587 174.619C115.785 174.826 115.941 175.069 116.046 175.336C116.15 175.603 116.2 175.888 116.194 176.175Z" fill="#263238"/>
<path d="M105.332 174.145L106.025 186.961L112.729 184.674L105.332 174.145Z" fill="#9A4A4D"/>
<path d="M48.554 325.485C48.3542 325.485 48.1627 325.406 48.0214 325.265C47.8801 325.124 47.8008 324.933 47.8008 324.733V88.1467C47.8008 87.9472 47.8801 87.7559 48.0214 87.6148C48.1627 87.4738 48.3542 87.3945 48.554 87.3945C48.7538 87.3945 48.9454 87.4738 49.0866 87.6148C49.2279 87.7559 49.3072 87.9472 49.3072 88.1467V324.733C49.3072 324.933 49.2279 325.124 49.0866 325.265C48.9454 325.406 48.7538 325.485 48.554 325.485Z" fill="#37474F"/>
<path d="M54.2789 108.74C54.2789 106.318 49.2624 99.7148 48.2531 99.7148C47.2437 99.7148 42.7695 106.198 42.7695 108.74C42.8153 109.244 42.9942 109.727 43.288 110.139C43.5818 110.552 43.9799 110.879 44.4417 111.087C45.6943 111.725 47.0804 112.057 48.4866 112.057C49.8927 112.057 51.2788 111.725 52.5314 111.087C52.996 110.881 53.3973 110.555 53.6938 110.142C53.9903 109.73 54.1715 109.246 54.2187 108.74H54.2789Z" fill="#3C096C"/>
<path opacity="0.1" d="M54.2789 108.74C54.2789 106.318 49.2624 99.7148 48.2531 99.7148C47.2437 99.7148 42.7695 106.198 42.7695 108.74C42.8153 109.244 42.9942 109.727 43.288 110.139C43.5818 110.552 43.9799 110.879 44.4417 111.087C45.6943 111.725 47.0804 112.057 48.4866 112.057C49.8927 112.057 51.2788 111.725 52.5314 111.087C52.996 110.881 53.3973 110.555 53.6938 110.142C53.9903 109.73 54.1715 109.246 54.2187 108.74H54.2789Z" fill="black"/>
<path d="M81.8629 56.2423C81.8629 74.7444 67.3105 98.1203 48.2989 102.543C29.1367 97.2027 14.75 74.7444 14.75 56.2423C14.75 37.7401 26.6812 20.4414 48.314 20.4414C69.9468 20.4414 81.8629 37.7251 81.8629 56.2423Z" fill="#5A189A"/>
<path opacity="0.05" d="M15.9855 46.0889C15.1552 49.4095 14.7403 52.82 14.7502 56.2425C14.7502 74.7446 29.1821 97.2029 48.3142 102.543C64.117 98.8576 76.8315 82.0853 80.673 65.8997C80.673 65.8997 75.6715 83.6648 53.6621 85.0938C31.6527 86.5228 13.8915 61.402 15.9855 46.0889Z" fill="black"/>
<path d="M27.1037 303.901C23.0965 302.758 18.9838 290.784 19.2851 283.112C19.5864 275.441 29.9208 242.257 31.3368 235.879C32.9488 228.839 32.8433 223.484 34.2744 219.829C36.3835 214.429 43.3132 211.466 43.3132 211.466C43.3132 211.466 52.352 207.148 55.606 206.502C58.8599 205.855 60.1253 208.006 59.7638 209.706C59.4022 211.405 58.2573 215.723 57.956 218.069C57.7413 221.072 56.8615 223.991 55.38 226.613C53.6777 229.336 46.7329 235.849 46.4617 239.474C46.1906 243.1 44.187 262.775 43.0421 277.08C42.093 288.783 40.9179 293.627 38.372 296.726C35.8261 299.825 30.2221 304.773 27.1037 303.901Z" fill="#B16668"/>
<path d="M592.659 473.158H578.348V497.617H592.659V473.158Z" fill="#FFA8A7"/>
<path d="M543.051 471.865L528.755 472.346L528.047 446.473L543.051 445.977V471.865Z" fill="#FFA8A7"/>
<path d="M588.037 291.16C588.037 304.804 590.176 386.74 590.176 386.74C590.507 390.666 594.289 397.645 594.59 411.785C595.012 432.288 593.234 485.388 593.234 485.388C590.764 486.598 588.058 487.253 585.307 487.308C582.556 487.362 579.827 486.815 577.311 485.704C577.311 485.704 564.687 412.583 562.126 392.29C559.896 374.585 556.1 326.465 556.1 326.465L548.372 384.348C550.027 391.794 550.626 399.435 550.149 407.047C549.471 416.433 543.973 463.907 543.973 463.907C541.471 465.316 538.69 466.158 535.826 466.374C532.963 466.589 530.086 466.174 527.402 465.156C527.402 465.156 520.171 392.952 520.005 384.348C519.824 374.525 524.765 274.298 524.765 274.298L588.037 291.16Z" fill="#5A189A"/>
<path d="M531.964 262.986C541.184 232.315 539.361 206.352 541.093 198.409L517.457 231.367C516.456 242.235 514.841 253.037 512.621 263.723C509.894 275.441 506.173 290.047 501.714 299.133C500.904 300.73 499.538 301.976 497.873 302.638C493.353 304.458 491.335 306.76 487.764 309.407C484.962 311.468 482.838 311.739 483.004 312.581C483.325 313.518 483.985 314.301 484.855 314.776C485.724 315.252 486.741 315.387 487.704 315.153C489.859 314.7 491.953 313.993 493.941 313.047C491.934 316.441 489.39 319.489 486.409 322.073C479.569 327.999 478.59 332.196 489.949 334.257C497.074 335.566 503.507 332.151 511.627 317.379C514.717 311.994 517.416 306.394 519.701 300.622C525.079 285.61 529.177 272.252 531.964 262.986Z" fill="#FFA8A7"/>
<path d="M542.99 190.783C535.653 192.077 528.407 193.792 523.903 200.832C519.399 207.871 512.891 241.1 512.891 241.1C512.891 241.1 522.351 247.734 533.198 247.448L542.99 190.783Z" fill="#E0E0E0"/>
<path d="M593.549 203.147C598.475 206.637 624.462 265.242 625.456 269.334C626.782 274.885 626.179 281.112 623.453 283.113C620.726 285.113 614.715 282.24 611.567 279.172C605.541 273.155 584.375 229.336 584.375 229.336L593.549 203.147Z" fill="#F28F8F"/>
<path d="M567.966 190.767C579.943 193.656 595.083 198.484 600.446 209.495C605.809 220.506 614.004 238.377 614.004 238.377C608.426 243.809 601.621 247.823 594.164 250.08L588.138 239.55L589.027 295.132C579.31 302.202 543.622 306.037 523.164 291.13C523.164 291.13 525.68 224.387 525.68 214.008C525.68 203.629 531.45 191.144 547.418 190.211L567.966 190.767Z" fill="#F0F0F0"/>
<path d="M588.033 239.506C588.033 239.506 582.007 229.097 580.727 226.6L588.259 252.172L588.033 239.506Z" fill="#E0E0E0"/>
<path d="M578.347 490.562V488.516C576.976 489.118 573.828 501.227 568.118 506.402C563.599 510.508 557.452 515.261 555.886 519.834C554.319 524.407 564.457 527.235 568.676 526.483C573.572 525.626 582.068 522.181 584.192 518.962C586.316 515.743 587.326 511.065 589.058 508.733C590.79 506.402 594.783 503.769 595.717 501.061C596.229 499.557 595.626 496.323 594.903 493.54C594.18 490.757 593.517 488.23 592.658 488.471V489.975C590.618 491.57 588.093 492.419 585.503 492.382C583.409 492.653 578.332 492.156 578.347 490.562Z" fill="#263238"/>
<path d="M528.603 467.939C527.865 467.939 527.263 469.022 525.591 470.782C523.148 473.246 520.306 475.28 517.185 476.799C511.821 479.476 501.412 483.598 496.697 485.719C493.684 487.043 493.895 490.593 496.938 492.608C499.981 494.624 507.317 496.098 516.145 494.113C520.951 493.03 527.218 488.607 531.21 488.833C535.202 489.058 542.583 489.028 545.506 487.013C548.429 484.997 547.269 480.695 546.44 477.01C545.536 472.978 544.406 466.69 543.066 466.976V468.36C541.348 470.962 532.52 472.015 528.694 470.105L528.603 467.939Z" fill="#263238"/>
<path opacity="0.1" d="M556.13 326.465C548.733 324.16 541.931 320.269 536.199 315.062C536.199 315.062 540.056 322.253 551.475 328.932L549.034 379.339L556.13 326.465Z" fill="black"/>
<path d="M572.46 137.653C573.534 137.526 574.623 137.645 575.644 138.002C576.665 138.359 577.59 138.945 578.35 139.714C580.881 142.301 580.353 147.085 578.35 158.066L570.531 158.968L572.46 137.653Z" fill="#263238"/>
<path d="M526.886 134.434C525.203 134.442 523.537 134.104 521.99 133.441C519.595 132.057 518.977 134.78 520.273 137.142C521.14 138.831 522.426 140.271 524.008 141.324C525.59 142.377 527.416 143.009 529.311 143.159C529.311 142.828 531.556 137.142 531.556 137.142L526.886 134.434Z" fill="#263238"/>
<path d="M568.798 158.923C569.958 159.615 571.615 157.419 573.046 155.915C574.478 154.41 579.148 152.365 581.468 157.268C583.788 162.172 578.455 168.911 575.291 171.107C571.525 173.725 568.798 171.679 568.798 171.679L567.97 190.783C567.97 190.783 563.812 200.922 552.574 202.441C541.335 203.96 543.655 194.724 547.346 190.181V183.232C547.346 183.232 541.546 184.375 538.805 183.668C536.817 183.042 535.016 181.934 533.562 180.443C532.108 178.952 531.047 177.124 530.474 175.124C527.385 164.932 526.74 154.157 528.591 143.67C531.453 126.326 551.037 126.04 562.004 132.93C572.971 139.819 568.798 158.923 568.798 158.923Z" fill="#FFA8A7"/>
<path d="M568.797 160.879C569.37 160.879 571.599 157.208 573.045 155.9C575.049 154.08 572.458 137.608 572.458 137.608C572.458 137.608 574.492 131.366 570.53 127.214C566.568 123.062 558.9 123.769 553.296 123.574C546.412 123.618 539.593 122.251 533.26 119.557C525.306 116.097 524.703 115.691 523.709 119.181C522.715 122.671 522.353 130.674 527.113 136.029L531.06 137.533C531.06 137.533 533.2 139.413 540.626 140.316C547.478 140.834 554.363 140.703 561.19 139.925C563.344 139.639 563.811 141.715 564.971 147.446C565.98 152.365 566.824 160.834 568.797 160.879Z" fill="#263238"/>
<path d="M572.443 138.887L579.463 135.126C579.239 134.656 578.922 134.235 578.531 133.89C578.14 133.544 577.683 133.282 577.187 133.117C576.692 132.953 576.169 132.89 575.648 132.933C575.128 132.976 574.622 133.123 574.16 133.366C573.217 133.889 572.512 134.754 572.192 135.783C571.873 136.811 571.962 137.923 572.443 138.887Z" fill="#263238"/>
<path d="M547.359 183.216C547.359 183.216 557.769 181.125 561.4 179.2C563.543 178.087 565.297 176.351 566.431 174.221C565.883 176.349 564.909 178.344 563.569 180.087C560.918 183.487 547.359 185.984 547.359 185.984V183.216Z" fill="#F28F8F"/>
<path d="M549.844 155.975C549.859 156.385 549.994 156.781 550.233 157.115C550.472 157.449 550.804 157.705 551.188 157.852C551.571 157.999 551.99 158.03 552.391 157.941C552.792 157.852 553.158 157.647 553.443 157.352C553.729 157.056 553.921 156.684 553.996 156.281C554.071 155.877 554.025 155.461 553.865 155.083C553.704 154.705 553.436 154.383 553.093 154.156C552.751 153.93 552.349 153.809 551.938 153.809C551.658 153.812 551.381 153.872 551.124 153.983C550.867 154.094 550.634 154.255 550.44 154.456C550.245 154.658 550.092 154.895 549.99 155.156C549.888 155.417 549.838 155.695 549.844 155.975Z" fill="#263238"/>
<path d="M552.438 147.355L556.957 149.822C557.278 149.211 557.349 148.499 557.155 147.837C556.961 147.175 556.518 146.613 555.917 146.272C555.621 146.102 555.292 145.995 554.952 145.957C554.612 145.92 554.267 145.953 553.941 146.055C553.614 146.156 553.312 146.324 553.053 146.548C552.795 146.772 552.585 147.046 552.438 147.355Z" fill="#263238"/>
<path d="M550.01 170.445L545.25 172.25C545.353 172.57 545.52 172.866 545.74 173.12C545.961 173.374 546.23 173.581 546.533 173.728C546.835 173.876 547.164 173.961 547.5 173.978C547.837 173.996 548.173 173.945 548.489 173.83C549.136 173.577 549.658 173.081 549.943 172.448C550.227 171.815 550.252 171.096 550.01 170.445Z" fill="#F28F8F"/>
<path d="M530.294 150.334L534.362 147.205C534.171 146.925 533.924 146.688 533.636 146.508C533.349 146.329 533.027 146.211 532.692 146.161C532.357 146.112 532.015 146.132 531.687 146.221C531.36 146.31 531.055 146.466 530.791 146.678C530.258 147.11 529.91 147.728 529.818 148.408C529.725 149.087 529.896 149.776 530.294 150.334Z" fill="#263238"/>
<path d="M532.625 155.388C532.64 155.798 532.776 156.196 533.015 156.53C533.255 156.864 533.588 157.12 533.972 157.266C534.357 157.413 534.776 157.443 535.177 157.352C535.579 157.262 535.945 157.056 536.23 156.759C536.514 156.463 536.705 156.089 536.778 155.684C536.852 155.28 536.804 154.863 536.641 154.486C536.478 154.108 536.208 153.787 535.863 153.562C535.519 153.337 535.116 153.219 534.704 153.222C534.142 153.237 533.609 153.474 533.22 153.879C532.831 154.284 532.617 154.826 532.625 155.388Z" fill="#263238"/>
<path d="M544.032 153.764L543.339 166.279L536.801 164.053L544.032 153.764Z" fill="#F28F8F"/>
<path d="M601.261 305.045C601.061 305.045 600.87 304.966 600.728 304.825C600.587 304.684 600.508 304.492 600.508 304.293V67.7062C600.508 67.5067 600.587 67.3154 600.728 67.1744C600.87 67.0333 601.061 66.9541 601.261 66.9541C601.461 66.9541 601.652 67.0333 601.794 67.1744C601.935 67.3154 602.014 67.5067 602.014 67.7062V304.293C602.014 304.492 601.935 304.684 601.794 304.825C601.652 304.966 601.461 305.045 601.261 305.045Z" fill="#37474F"/>
<path d="M595.566 88.2989C595.566 85.8921 600.583 79.2734 601.592 79.2734C602.602 79.2734 607.076 85.7567 607.076 88.2989C607.032 88.8033 606.853 89.2867 606.559 89.6992C606.265 90.1118 605.866 90.4385 605.404 90.6455C604.151 91.2834 602.765 91.6159 601.359 91.6159C599.953 91.6159 598.567 91.2834 597.314 90.6455C596.836 90.4505 596.421 90.1288 596.113 89.7152C595.805 89.3016 595.616 88.8119 595.566 88.2989Z" fill="#3C096C"/>
<path opacity="0.1" d="M595.566 88.2989C595.566 85.8921 600.583 79.2734 601.592 79.2734C602.602 79.2734 607.076 85.7567 607.076 88.2989C607.032 88.8033 606.853 89.2867 606.559 89.6992C606.265 90.1118 605.866 90.4385 605.404 90.6455C604.151 91.2834 602.765 91.6159 601.359 91.6159C599.953 91.6159 598.567 91.2834 597.314 90.6455C596.836 90.4505 596.421 90.1288 596.113 89.7152C595.805 89.3016 595.616 88.8119 595.566 88.2989Z" fill="black"/>
<path d="M567.938 35.8009C567.938 54.303 582.475 77.6789 601.501 82.1014C620.634 76.7613 635.065 54.303 635.065 35.8009C635.065 17.2987 623.134 0 601.501 0C579.869 0 567.938 17.3138 567.938 35.8009Z" fill="#5A189A"/>
<path opacity="0.05" d="M633.619 45.4733C633.619 45.4733 628.708 63.2234 606.608 64.6524C585.397 66.0213 568.148 42.7657 568.796 27.3623C568.221 30.1385 567.934 32.9662 567.938 35.8011C567.938 54.3032 582.475 77.6791 601.502 82.1016C617.365 77.6791 629.974 61.4935 633.845 45.5486L633.619 45.4733Z" fill="black"/>
<path d="M622.685 283.46C626.692 282.316 630.805 270.358 630.503 262.671C630.202 254.984 619.868 221.831 618.452 215.438C616.84 208.398 616.945 203.043 615.514 199.388C613.405 194.003 606.475 191.039 606.475 191.039C606.475 191.039 597.436 186.707 594.182 186.06C590.928 185.413 589.663 187.564 590.025 189.264C590.386 190.964 591.531 195.281 591.832 197.628C592.045 200.631 592.925 203.55 594.408 206.172C596.111 208.895 603.055 215.408 603.327 219.033C603.598 222.658 605.601 242.349 606.746 256.639C607.695 268.342 608.87 273.186 611.416 276.284C613.962 279.383 619.672 284.347 622.685 283.46Z" fill="#FFA8A7"/>
<path d="M233.667 503.136C276.191 503.136 310.662 486.73 310.662 466.493C310.662 446.255 276.191 429.85 233.667 429.85C191.144 429.85 156.672 446.255 156.672 466.493C156.672 486.73 191.144 503.136 233.667 503.136Z" fill="#E0E0E0"/>
<path d="M397.269 514.283C439.792 514.283 474.264 497.877 474.264 477.639C474.264 457.402 439.792 440.996 397.269 440.996C354.745 440.996 320.273 457.402 320.273 477.639C320.273 497.877 354.745 514.283 397.269 514.283Z" fill="#E0E0E0"/>
<path d="M253.043 164.277C257.035 163.706 260.41 164.277 267.384 173.784C273.621 182.298 286.05 196.588 286.05 196.588C286.05 196.588 297.288 167.181 296.956 163.224C296.625 159.268 294.139 156.831 292.512 149.551C290.885 142.27 290.418 140.886 289.198 138.765C287.978 136.645 292.211 136.133 293.913 138.765C295.616 141.398 295.827 145.113 297.017 144.452C298.207 143.79 299.02 135.787 298.011 130.041C297.002 124.295 299.623 123.001 300.813 124.836C301.503 125.862 301.989 127.011 302.244 128.221C303.476 127.97 304.752 128.049 305.943 128.451C307.133 128.852 308.196 129.562 309.023 130.507C312.036 133.786 314.537 138.826 314.522 147.355C314.507 155.884 310.56 160.442 310.002 164.292C309.445 168.143 302.47 203.839 297.529 215.903C294.425 223.424 290.132 225.711 284.89 221.303C277.824 215.361 258.436 191.564 258.436 191.564L253.043 164.277Z" fill="#FFA8A7"/>
<path d="M253.043 164.277C256.643 163.209 260.575 164.051 264.221 168.414C267.867 172.776 281.214 189.654 281.214 189.654C281.214 189.654 280.822 198.288 269.659 206.29L256.93 192.602L253.043 164.277Z" fill="#5A189A"/>
<path d="M271.903 442.801L271.782 440.801C272.732 443.102 277.01 453.03 282.9 457.769C287.57 461.544 293.912 465.861 295.72 470.269C297.528 474.676 287.676 477.038 283.488 476.542C278.622 475.985 272.219 473.623 268.574 469.667C266.013 466.884 264.295 463.515 262.457 461.319C260.62 459.122 256.537 456.806 255.452 454.173C254.865 452.744 255.272 449.495 255.814 446.758C256.356 444.02 257.17 441.222 258.028 441.402C257.992 441.993 257.922 442.58 257.818 443.162C259.911 444.619 262.444 445.309 264.988 445.118C267.052 445.073 272.023 444.366 271.903 442.801Z" fill="#263238"/>
<path d="M287.13 461.062C285.624 459.919 284.223 458.806 282.897 457.738C278.785 454.413 275.455 448.562 273.497 444.561V444.485C271.998 441.246 271.345 437.68 271.599 434.121L271.779 429.383L256.715 429.684L257.815 443.132V443.478H257.89C258.749 446.351 265.663 453.736 269.64 458.52C272.292 461.754 277.173 465.8 282.852 466.207C288.245 466.718 290.806 464.883 287.13 461.062Z" fill="#FFA8A7"/>
<path d="M187.796 444.516C187.073 444.094 185.883 446.546 184.632 448.412C183.29 450.732 182.652 453.392 182.795 456.068C183.128 459.082 182.97 462.13 182.328 465.094C181.484 470.088 180.023 475.819 185.054 480.422C189.378 484.363 199.019 486.198 202.092 483.43C202.717 482.923 203.213 482.276 203.54 481.542C203.867 480.807 204.016 480.006 203.975 479.203C203.359 477.023 202.51 474.915 201.445 472.916C200.256 470.648 199.19 468.318 198.251 465.936L187.796 444.516Z" fill="#263238"/>
<path d="M201.383 436.063C200.72 435.506 199.289 453.978 198.882 458.371C198.476 462.763 199.244 465.064 199.967 469.743C200.327 470.848 200.246 472.05 199.741 473.097C199.359 473.582 198.868 473.971 198.308 474.233C197.749 474.494 197.135 474.62 196.517 474.601C193.323 474.601 190.793 473.428 188.111 470.405C186.785 468.9 186.695 464.914 186.77 463.47C186.989 461.049 187.034 458.616 186.906 456.189C186.665 453.617 185.912 450.594 186.243 448.668C186.526 447.177 187.034 445.736 187.75 444.396C188.97 441.613 189.783 434.002 189.783 434.002L201.383 436.063Z" fill="#FFA8A7"/>
<path d="M207.698 240.225C199.879 250.259 198.463 260.608 200.166 289.865C201.868 319.123 199.397 343.025 198.96 344.665C198.524 346.304 193.567 362.46 191.232 373.335C188.506 386.076 188.129 438.529 188.129 438.529C188.129 438.529 193.688 441.538 202.275 439.492C202.275 439.492 223.004 357.526 225.203 350.922C227.402 344.319 244.049 276.207 244.049 276.207L241.925 236.991L207.698 240.225Z" fill="#37474F"/>
<path d="M267.489 273.951C266.299 260.412 263.392 236.961 263.392 236.961L228.743 234.931C223.124 243.67 225.564 258.201 227.101 271.333L246.926 348.832C246.519 352.547 243.1 360.414 246.926 380.421C251.189 402.714 256.417 432.182 256.417 432.182C256.417 432.182 264.552 435.491 272.024 432.347C272.024 432.347 274.886 361.768 273.063 342.499C271.06 321.575 268.303 283.217 267.489 273.951Z" fill="#37474F"/>
<path d="M237.992 306.834L243.641 278.404C248.649 276.623 253.404 274.201 257.787 271.198C254.987 274.732 251.647 277.803 247.89 280.299L237.992 306.834Z" fill="#263238"/>
<path d="M209.79 171.376C205.903 173.617 199.471 175.663 196.789 183.214C193.128 193.744 183.412 221.091 179.676 230.914H197.633L210.061 205.492C219.672 197.249 218.377 174.339 209.79 171.376Z" fill="#FFA8A7"/>
<path d="M261.133 214.984C261.991 222.882 265.185 252.094 265.185 252.094C239.048 266.008 206.644 256.787 201.688 251.056C206.207 236.284 211.013 227.876 214.703 223.98L210.063 205.493C210.063 205.493 221.015 192.481 209.792 171.376L224.36 166.593L244.305 164.863L253.043 164.276C256.161 167.195 261.072 177.649 264.266 185.787C266.315 191.037 268.529 199.43 261.133 214.984Z" fill="#F5F5F5"/>
<path d="M209.79 171.376C201.203 173.061 197.346 177.273 193.912 186.629C190.206 196.752 185.762 207.688 185.762 207.688C188.167 211.16 191.525 213.864 195.431 215.479C199.338 217.093 203.627 217.548 207.786 216.789L213.345 201.31C213.345 201.31 220.802 187.652 209.79 171.376Z" fill="#5A189A"/>
<path d="M212.426 214.789C212.652 215.692 218.769 223.815 221.766 225.68C224.764 227.545 216.464 230.192 215.289 234.931C212.923 244.453 227.702 256.682 246.066 258.427C225.292 261.827 205.512 255.419 201.73 251.056C206.25 236.285 211.055 227.876 214.746 223.98L212.426 214.789Z" fill="#E6E6E6"/>
<path d="M267.382 162.427H239.467C234.98 162.429 230.536 161.548 226.39 159.834C222.244 158.12 218.477 155.607 215.304 152.439C212.13 149.27 209.614 145.509 207.898 141.369C206.181 137.229 205.299 132.791 205.301 128.311C205.301 120.092 208.57 112.21 214.39 106.399C220.21 100.588 228.103 97.3232 236.334 97.3232C240.41 97.3213 244.448 98.1213 248.214 99.6777C251.981 101.234 255.404 103.516 258.287 106.394C261.171 109.272 263.458 112.688 265.018 116.449C266.579 120.209 267.382 124.24 267.382 128.311V162.427Z" fill="#263238"/>
<path d="M256.296 110.816C259.58 112.757 263.633 120.985 263.226 138.253C262.88 152.875 258.134 156.5 255.694 157.538C253.253 158.576 248.704 157.944 244.245 157.192V165.976C243.967 167.833 242.965 169.504 241.458 170.625C237.812 172.896 233.504 172.039 231.078 171.166C225.73 169.241 224.676 166.653 224.676 166.653L224.766 146.451C224.766 146.451 222.145 149.009 217.671 145.113C213.995 141.894 212.76 136.478 215.622 133.56C216.367 132.868 217.266 132.363 218.246 132.087C219.225 131.811 220.256 131.771 221.254 131.97C222.251 132.17 223.187 132.604 223.984 133.236C224.781 133.868 225.415 134.681 225.836 135.606C225.836 135.606 228.457 135.816 231.078 130.943C231.078 130.943 230.988 117.736 233.94 116.021C243.356 110.575 250.014 110.816 256.296 110.816Z" fill="#FFA8A7"/>
<path d="M244.289 133.65C244.308 133.894 244.278 134.14 244.2 134.372C244.123 134.605 244 134.82 243.839 135.004C243.678 135.189 243.481 135.34 243.261 135.448C243.041 135.557 242.802 135.62 242.557 135.636C242.176 135.671 241.793 135.592 241.458 135.409C241.123 135.225 240.85 134.945 240.676 134.605C240.501 134.266 240.433 133.881 240.479 133.502C240.525 133.123 240.684 132.767 240.936 132.479C241.187 132.191 241.519 131.985 241.888 131.887C242.258 131.789 242.649 131.804 243.01 131.93C243.371 132.056 243.686 132.288 243.914 132.594C244.142 132.901 244.273 133.269 244.289 133.65Z" fill="#263238"/>
<g style="mix-blend-mode:multiply" opacity="0.5">
<g style="mix-blend-mode:multiply" opacity="0.5">
<path d="M247.363 146.977L251.641 148.33C251.562 148.615 251.426 148.881 251.242 149.111C251.057 149.342 250.828 149.534 250.568 149.674C250.308 149.815 250.022 149.901 249.727 149.929C249.433 149.956 249.136 149.924 248.854 149.835C248.287 149.638 247.817 149.233 247.539 148.702C247.262 148.17 247.199 147.553 247.363 146.977Z" fill="#F28F8F"/>
</g>
</g>
<path d="M260.951 127.919L257.23 125.347C257.385 125.095 257.589 124.877 257.831 124.707C258.073 124.538 258.347 124.419 258.637 124.36C258.927 124.301 259.225 124.302 259.515 124.363C259.804 124.424 260.078 124.544 260.319 124.715C260.817 125.065 261.161 125.593 261.279 126.19C261.397 126.787 261.28 127.407 260.951 127.919Z" fill="#263238"/>
<path d="M241.728 127.121L237.495 128.746C237.374 128.477 237.309 128.185 237.305 127.89C237.301 127.595 237.358 127.302 237.473 127.029C237.587 126.757 237.756 126.511 237.97 126.307C238.184 126.103 238.438 125.945 238.715 125.843C239.286 125.631 239.916 125.645 240.477 125.883C241.037 126.121 241.485 126.564 241.728 127.121Z" fill="#263238"/>
<path d="M259.94 133.244C259.946 133.607 259.844 133.964 259.648 134.269C259.451 134.575 259.169 134.817 258.837 134.964C258.504 135.111 258.135 135.156 257.776 135.095C257.418 135.034 257.085 134.869 256.82 134.621C256.554 134.372 256.368 134.051 256.284 133.698C256.2 133.344 256.223 132.974 256.348 132.633C256.474 132.292 256.697 131.996 256.99 131.78C257.283 131.565 257.633 131.441 257.997 131.423C258.495 131.411 258.978 131.595 259.342 131.936C259.706 132.276 259.92 132.746 259.94 133.244Z" fill="#263238"/>
<g style="mix-blend-mode:multiply" opacity="0.5">
<g style="mix-blend-mode:multiply" opacity="0.5">
<path d="M251.098 132.19L251.384 143.262L257.229 141.457L251.098 132.19Z" fill="#F28F8F"/>
</g>
</g>
<g style="mix-blend-mode:multiply" opacity="0.5">
<g style="mix-blend-mode:multiply" opacity="0.5">
<path d="M244.302 157.208C239.587 156.591 229.885 153.823 228.379 149.987C228.982 151.929 230.171 153.636 231.784 154.876C234.676 157.358 244.302 160.141 244.302 160.141V157.208Z" fill="#F28F8F"/>
</g>
</g>
<path d="M231.845 98.9774L231.137 90.8545C231.669 90.7744 232.213 90.804 232.734 90.9415C233.254 91.0791 233.741 91.3216 234.165 91.6541C234.588 91.9867 234.939 92.4023 235.195 92.8753C235.452 93.3483 235.609 93.8687 235.656 94.4045C235.737 95.511 235.385 96.6058 234.674 97.4585C233.963 98.3113 232.949 98.8558 231.845 98.9774Z" fill="#263238"/>
<path d="M231.407 99.7897L224.824 94.9761C225.119 94.5279 225.502 94.1442 225.95 93.8483C226.397 93.5525 226.901 93.3506 227.429 93.2549C227.957 93.1592 228.5 93.1718 229.023 93.2918C229.546 93.4119 230.04 93.6369 230.473 93.9532C231.349 94.6206 231.935 95.5986 232.109 96.685C232.283 97.7714 232.032 98.883 231.407 99.7897Z" fill="#263238"/>
<path d="M225.895 135.575V143.262C227.285 143.262 228.618 142.71 229.602 141.729C230.585 140.747 231.137 139.416 231.137 138.027V130.912L225.895 135.575Z" fill="#263238"/>
<path d="M246.864 99.1426C253.776 99.1426 260.405 101.884 265.292 106.765C270.18 111.645 272.926 118.264 272.926 125.166V128.535H260.181C257.311 128.536 254.538 127.499 252.375 125.616C250.212 123.733 248.805 121.131 248.415 118.292L247.948 128.535C245.59 128.537 243.316 127.656 241.576 126.066C239.836 124.476 238.755 122.292 238.548 119.946L238.397 118.261C238.174 121.057 236.905 123.667 234.842 125.571C232.779 127.475 230.074 128.533 227.265 128.535H226.12L224.824 110.154L246.864 99.1426Z" fill="#263238"/>
<path d="M424.01 463.049V461.063C423.212 463.425 419.491 473.594 413.932 478.678C409.488 482.725 403.387 487.403 401.881 491.915C400.374 496.428 410.317 498.188 414.475 497.451C419.295 496.609 425.547 493.871 428.937 489.704C431.332 486.771 432.853 483.296 434.556 480.995C436.258 478.693 440.19 476.106 441.109 473.473C441.621 471.969 441.018 468.795 440.31 466.088C439.602 463.38 438.955 460.868 438.096 461.094V462.598C436.09 464.177 433.6 465.017 431.046 464.975C428.997 465.035 423.995 464.629 424.01 463.049Z" fill="#263238"/>
<path d="M409.91 482.213C411.296 480.979 412.682 479.791 413.932 478.633C417.849 475.083 420.817 469.051 422.534 464.929C423.513 462.583 424.025 460.07 424.04 457.528V449.511H438.126V462.568V462.914H438.051C437.373 465.832 430.91 473.624 427.234 478.693C424.779 482.093 420.093 486.41 414.505 487.162C409.172 487.899 406.475 486.229 409.91 482.213Z" fill="#B16668"/>
<path d="M369.038 449.18V447.164C368.255 449.526 364.519 459.694 358.975 464.779C354.531 468.825 348.43 473.503 346.924 478.016C345.417 482.529 355.36 484.289 359.518 483.552C364.338 482.694 370.575 479.971 373.98 475.805C376.36 472.871 377.881 469.397 379.599 467.095C381.316 464.794 385.233 462.206 386.152 459.574C386.664 458.07 386.061 454.896 385.353 452.188C384.69 449.706 383.982 446.968 383.139 447.194V448.698C381.133 450.278 378.643 451.117 376.089 451.075C374.025 451.165 369.023 450.759 369.038 449.18Z" fill="#263238"/>
<path d="M354.953 468.344C356.324 467.11 357.71 465.922 358.975 464.764C362.877 461.214 365.86 455.182 367.562 451.06C368.55 448.717 369.062 446.201 369.069 443.659V435.642H383.154V448.683V449.029H383.079C382.401 451.948 375.938 459.724 372.262 464.809C369.792 468.208 365.122 472.526 359.533 473.278C354.215 474.03 351.518 472.36 354.953 468.344Z" fill="#B16668"/>
<path d="M435.294 244.452C446.216 268.279 434.903 352.201 434.903 352.201C435.234 356.067 439.648 363.678 441.305 380.691C443.248 400.788 438.292 451.27 438.292 451.27C436.145 452.514 433.726 453.217 431.245 453.317C428.764 453.416 426.296 452.91 424.056 451.842C424.056 451.842 410.573 375.742 408.057 355.766C405.843 338.332 401.625 299.974 401.625 299.974L389.573 355.63C391.323 361.255 392.592 367.016 393.369 372.854C394.514 384.617 383.11 439.356 383.11 439.356C383.11 439.356 378.244 441.131 369.01 439.778C369.01 439.778 364.988 367.123 363.918 352.968C362.125 329.171 368.437 254.952 372.821 240.872L435.294 244.452Z" fill="#37474F"/>
<path d="M401.623 299.959L398.068 277.832C398.068 277.832 383.003 274.718 376.27 268.34C376.27 268.34 383.395 277.2 394.001 280.103L397.993 297.101L391.033 348.681L401.623 299.959Z" fill="#263238"/>
<path d="M394.272 160.982C390.875 160.423 387.39 160.822 384.21 162.135C381.029 163.448 378.278 165.623 376.269 168.413C371.524 174.716 353.266 227.74 353.266 227.74H369.701L392.193 183.305L394.272 160.982Z" fill="#B16668"/>
<path d="M416.027 161.63C430.037 162.592 431.016 169.346 434.511 176.672C437.097 182.368 437.336 188.852 435.174 194.723L425.427 222.912C425.427 222.912 429.946 233.938 435.294 244.363C410.799 258.006 380.218 250.831 372.851 240.873C372.55 238.767 374.358 222.25 375.608 211.465C371.285 200.65 370.155 193.805 371.978 186.66C375.352 173.408 388.458 160.486 394.273 160.953L416.027 161.63Z" fill="#F5F5F5"/>
<path d="M409.758 247.039C411.681 246.599 413.497 245.779 415.098 244.627C416.699 243.476 418.053 242.016 419.081 240.334C420.108 238.652 420.788 236.782 421.081 234.833C421.374 232.885 421.273 230.898 420.785 228.989C420.723 228.726 420.637 228.469 420.529 228.221C420.194 227.196 419.523 226.313 418.624 225.716C417.724 225.118 416.65 224.84 415.573 224.927C417.146 223.891 418.497 222.553 419.547 220.99C420.597 219.428 421.325 217.673 421.689 215.826L424.702 200.919C424.702 200.919 419.173 183.41 419.731 177.408L433.786 178.221L435.609 179.484C437.102 184.472 436.96 189.806 435.202 194.707L425.455 222.896C425.455 222.896 429.975 233.922 435.323 244.347C427.354 248.626 418.56 251.15 409.531 251.747C400.503 252.343 391.452 251 382.988 247.807C391.88 249.239 400.963 248.978 409.758 247.039Z" fill="#E6E6E6"/>
<path d="M467.589 231.531C467.589 231.531 453.685 204.214 444.495 183.305C437.867 168.263 436.376 164.803 425.815 163.163L422.094 162.592C417.093 179.003 420.588 186.449 427.126 197.686L450.009 241.008C455.191 239.94 467.695 233.095 467.589 231.531Z" fill="#B16668"/>
<path d="M410.21 150.031H400.282C393.278 150.031 386.561 147.253 381.609 142.308C376.656 137.363 373.874 130.656 373.874 123.662V119.239C373.874 112.206 376.672 105.461 381.653 100.487C386.634 95.5138 393.389 92.7197 400.433 92.7197H409.984C417.028 92.7197 423.783 95.5138 428.764 100.487C433.745 105.461 436.543 112.206 436.543 119.239V123.662C436.543 130.656 433.761 137.363 428.808 142.308C423.856 147.253 417.139 150.031 410.135 150.031H410.21Z" fill="#263238"/>
<path d="M384.24 105.37C380.926 107.326 376.828 115.644 377.235 133.078C377.582 147.85 382.372 151.49 384.767 152.543C387.163 153.596 391.818 152.949 396.337 152.212V161.072C396.337 161.072 390.085 168.307 390.492 172.369C390.899 176.43 399.531 177.393 405.331 173.422C409.118 170.704 412.367 167.307 414.912 163.404V141.983C414.912 141.983 417.925 146.045 422.941 142.735C427.958 139.426 428.123 131.258 425.231 128.31C422.339 125.361 416.072 126.309 414.912 130.371C414.912 130.371 407.711 130.626 398.13 125.361C394.401 123.357 391.199 120.502 388.785 117.028C386.372 113.554 384.814 109.559 384.24 105.37Z" fill="#B16668"/>
<path d="M395.403 129.364C395.397 129.73 395.5 130.089 395.698 130.398C395.895 130.706 396.18 130.95 396.515 131.098C396.851 131.246 397.223 131.292 397.584 131.23C397.946 131.169 398.281 131.002 398.549 130.752C398.816 130.501 399.004 130.177 399.088 129.821C399.173 129.464 399.15 129.091 399.023 128.747C398.897 128.404 398.672 128.105 398.376 127.888C398.08 127.671 397.727 127.546 397.361 127.528C397.112 127.52 396.863 127.561 396.63 127.649C396.396 127.737 396.183 127.87 396.001 128.041C395.819 128.211 395.673 128.416 395.57 128.643C395.467 128.87 395.41 129.115 395.403 129.364Z" fill="#263238"/>
<path d="M393.246 141.878L388.938 143.262C389.018 143.547 389.156 143.813 389.342 144.044C389.528 144.275 389.758 144.466 390.019 144.607C390.281 144.747 390.568 144.833 390.863 144.861C391.159 144.888 391.457 144.856 391.74 144.766C392.309 144.564 392.782 144.153 393.061 143.618C393.34 143.082 393.407 142.46 393.246 141.878Z" fill="#9A4A4D"/>
<path d="M380.143 123.662L383.909 121.044C383.749 120.793 383.54 120.576 383.294 120.407C383.048 120.238 382.77 120.12 382.478 120.061C382.185 120.002 381.883 120.003 381.591 120.063C381.298 120.124 381.021 120.243 380.776 120.413C380.271 120.768 379.924 121.305 379.806 121.91C379.688 122.516 379.809 123.143 380.143 123.662Z" fill="#263238"/>
<path d="M381.016 128.023C381.013 128.389 381.118 128.747 381.318 129.054C381.518 129.36 381.803 129.601 382.139 129.747C382.475 129.893 382.846 129.937 383.207 129.873C383.567 129.81 383.902 129.642 384.168 129.391C384.433 129.14 384.62 128.816 384.703 128.46C384.786 128.104 384.763 127.731 384.635 127.388C384.508 127.046 384.283 126.748 383.988 126.532C383.692 126.315 383.34 126.191 382.974 126.173C382.47 126.165 381.983 126.354 381.617 126.7C381.251 127.045 381.035 127.521 381.016 128.023Z" fill="#263238"/>
<path d="M390.113 126.956L389.812 138.133L383.922 136.312L390.113 126.956Z" fill="#9A4A4D"/>
<path d="M396.352 152.213C401.097 151.581 410.889 148.768 412.41 144.917C411.807 146.87 410.612 148.588 408.991 149.836C406.068 152.348 396.352 155.161 396.352 155.161V152.213Z" fill="#9A4A4D"/>
<path d="M432.717 96.0746C426.6 98.6167 427.971 103.851 430.532 109.959C433.093 116.066 435.88 120.714 441.906 118.097C443.524 117.612 445.021 116.793 446.302 115.694C447.582 114.594 448.617 113.238 449.339 111.713C450.061 110.189 450.454 108.53 450.492 106.844C450.531 105.158 450.214 103.482 449.562 101.927C448.91 100.371 447.938 98.9691 446.709 97.8124C445.48 96.6558 444.021 95.77 442.427 95.2126C440.833 94.6551 439.14 94.4384 437.456 94.5766C435.773 94.7147 434.138 95.2046 432.656 96.0144L432.717 96.0746Z" fill="#263238"/>
<path d="M427.338 101.549L425.199 91.3654C425.854 91.2007 426.536 91.169 427.204 91.2723C427.872 91.3755 428.512 91.6116 429.086 91.9665C429.661 92.3215 430.158 92.788 430.549 93.3385C430.94 93.889 431.216 94.5122 431.361 95.1711C431.643 96.547 431.383 97.9788 430.633 99.1673C429.884 100.356 428.703 101.209 427.338 101.549Z" fill="#263238"/>
<path d="M477.533 227.74H158.238V300.741H477.533V227.74Z" fill="#5A189A"/>
<path d="M201.671 281.08C201.395 280.824 201.197 280.496 201.099 280.132L193.341 254.982C193.314 254.827 193.314 254.67 193.341 254.515C193.341 254.019 193.642 253.778 194.26 253.778H198.689C199.026 253.743 199.366 253.822 199.653 254.004C199.879 254.213 200.023 254.495 200.059 254.801L205.061 272.356L210.74 257.313C210.849 257 211.029 256.717 211.267 256.486C211.53 256.287 211.859 256.196 212.186 256.23H214.657C214.97 256.204 215.283 256.283 215.546 256.456C215.77 256.701 215.935 256.994 216.028 257.313L221.662 272.356L226.709 254.801C226.784 254.509 226.923 254.236 227.115 254.004C227.406 253.819 227.752 253.739 228.095 253.778H232.509C233.126 253.778 233.428 254.019 233.428 254.515C233.446 254.67 233.446 254.827 233.428 254.982L225.549 280.102C225.468 280.474 225.279 280.814 225.006 281.08C224.7 281.255 224.349 281.334 223.997 281.306H220.457C220.13 281.331 219.805 281.24 219.538 281.05C219.287 280.774 219.093 280.452 218.965 280.102L213.226 264.669L207.471 280.102C207.346 280.461 207.14 280.785 206.869 281.05C206.59 281.239 206.256 281.329 205.92 281.306H202.65C202.309 281.324 201.97 281.245 201.671 281.08Z" fill="white"/>
<path d="M242.059 280.675C239.71 279.713 237.701 278.074 236.289 275.966C234.779 273.599 234.027 270.829 234.135 268.024C234.135 263.09 235.456 259.345 238.097 256.787C240.733 254.23 244.485 252.937 249.35 252.937C254.216 252.937 257.832 254.185 260.302 256.667C262.773 259.149 264.008 262.684 264.008 267.452C264.008 268.791 263.391 269.468 262.17 269.468H241.08C241.023 270.58 241.234 271.688 241.695 272.701C242.157 273.714 242.855 274.602 243.731 275.29C245.889 276.762 248.475 277.476 251.083 277.32C253.934 277.362 256.746 276.651 259.233 275.259C259.423 275.132 259.639 275.05 259.866 275.019C260.137 275.019 260.348 275.199 260.498 275.545L261.884 278.012C261.985 278.208 262.042 278.424 262.05 278.644C262.034 278.8 261.978 278.949 261.888 279.078C261.799 279.207 261.678 279.311 261.538 279.381C259.959 280.344 258.242 281.059 256.446 281.502C254.389 281.992 252.279 282.225 250.164 282.194C247.388 282.233 244.632 281.717 242.059 280.675ZM257.335 265.211C257.392 264.201 257.246 263.19 256.907 262.237C256.569 261.284 256.043 260.408 255.361 259.66C254.557 258.942 253.615 258.392 252.592 258.046C251.57 257.7 250.487 257.563 249.411 257.645C247.161 257.499 244.944 258.238 243.234 259.706C242.512 260.424 241.947 261.284 241.576 262.232C241.205 263.18 241.036 264.194 241.08 265.211H257.335Z" fill="white"/>
<path d="M270.169 280.825C269.82 280.404 269.643 279.867 269.671 279.321V244.453C269.624 243.872 269.802 243.296 270.169 242.843C270.39 242.65 270.648 242.505 270.928 242.417C271.208 242.329 271.504 242.3 271.796 242.332H274.809C275.412 242.275 276.013 242.458 276.481 242.843C276.668 243.064 276.81 243.321 276.898 243.597C276.986 243.873 277.018 244.164 276.993 244.453V279.276C277.026 279.82 276.854 280.356 276.511 280.78C276.032 281.167 275.421 281.35 274.809 281.292H271.796C271.507 281.326 271.214 281.302 270.935 281.222C270.656 281.142 270.395 281.007 270.169 280.825Z" fill="white"/>
<path d="M286.892 278.433C285.427 277.067 284.283 275.394 283.544 273.534C282.804 271.675 282.486 269.674 282.613 267.677C282.557 264.985 283.234 262.328 284.572 259.991C285.893 257.758 287.835 255.955 290.161 254.801C292.82 253.513 295.747 252.874 298.702 252.936C300.772 252.901 302.838 253.133 304.849 253.628C306.537 254.089 308.128 254.848 309.549 255.869C309.691 255.938 309.814 256.042 309.906 256.171C309.998 256.299 310.057 256.449 310.076 256.606C310.052 256.897 309.954 257.177 309.79 257.418L308.283 260.111C308.042 260.487 307.831 260.683 307.651 260.683C307.351 260.651 307.068 260.531 306.837 260.337C305.733 259.654 304.549 259.108 303.312 258.712C301.958 258.313 300.551 258.126 299.139 258.155C297.894 258.092 296.648 258.286 295.482 258.726C294.315 259.166 293.252 259.842 292.36 260.713C291.509 261.654 290.853 262.754 290.429 263.949C290.005 265.144 289.822 266.411 289.89 267.677C289.793 268.948 289.963 270.225 290.389 271.427C290.814 272.629 291.485 273.729 292.36 274.657C294.387 276.332 296.982 277.162 299.606 276.973C302.326 277.054 305 276.269 307.244 274.732C307.467 274.575 307.726 274.477 307.997 274.446C308.223 274.446 308.449 274.642 308.675 275.018L310.347 277.831C310.492 278.01 310.571 278.233 310.573 278.463C310.573 278.733 310.377 279.004 310.001 279.275C308.481 280.264 306.813 281.005 305.06 281.471C303.032 281.985 300.945 282.228 298.853 282.193C293.731 282.193 289.744 280.94 286.892 278.433Z" fill="white"/>
<path d="M319.116 278.268C316.504 275.315 315.062 271.512 315.062 267.573C315.062 263.634 316.504 259.83 319.116 256.878C321.812 254.26 325.654 252.937 330.64 252.937C335.626 252.937 339.468 254.26 342.179 256.878C344.809 259.821 346.263 263.628 346.263 267.573C346.263 271.518 344.809 275.324 342.179 278.268C339.468 280.885 335.611 282.194 330.64 282.194C325.669 282.194 321.812 280.885 319.116 278.268ZM336.832 274.447C338.387 272.507 339.152 270.052 338.971 267.573C339.15 265.117 338.385 262.686 336.832 260.774C335.123 259.271 332.924 258.442 330.648 258.442C328.371 258.442 326.172 259.271 324.463 260.774C322.899 262.68 322.128 265.114 322.309 267.573C322.136 270.044 322.906 272.489 324.463 274.417C326.158 275.948 328.362 276.795 330.648 276.795C332.933 276.795 335.137 275.948 336.832 274.417V274.447Z" fill="white"/>
<path d="M352.406 280.825C352.041 280.411 351.852 279.871 351.879 279.32V255.403C351.84 254.975 351.946 254.546 352.18 254.184C352.361 253.959 352.768 253.854 353.385 253.854H356.398C356.726 253.82 357.054 253.912 357.317 254.109C357.533 254.355 357.656 254.67 357.664 254.997L357.829 257.404C358.861 256.059 360.165 254.946 361.656 254.139C363.245 253.334 365.011 252.935 366.793 252.981C368.335 252.944 369.858 253.334 371.192 254.109C372.449 254.866 373.411 256.028 373.918 257.404C374.945 255.959 376.32 254.797 377.915 254.024C379.511 253.251 381.276 252.892 383.048 252.981C384.237 252.923 385.426 253.112 386.538 253.537C387.651 253.962 388.663 254.612 389.51 255.448C391.233 257.491 392.087 260.125 391.891 262.789V279.335C391.918 279.879 391.747 280.413 391.409 280.84C390.93 281.226 390.319 281.41 389.706 281.351H387.175C386.578 281.398 385.985 281.215 385.518 280.84C385.159 280.423 384.975 279.884 385.006 279.335V263.15C385.135 261.788 384.73 260.429 383.876 259.359C383.422 258.952 382.891 258.641 382.314 258.444C381.736 258.248 381.125 258.17 380.517 258.216C379.811 258.185 379.107 258.302 378.45 258.562C377.793 258.821 377.199 259.216 376.705 259.72C375.673 260.863 375.132 262.365 375.199 263.902V279.23C375.23 279.779 375.046 280.318 374.687 280.734C374.215 281.112 373.617 281.295 373.015 281.246H370.664C370.066 281.299 369.471 281.115 369.007 280.734C368.642 280.32 368.453 279.781 368.48 279.23V262.864C368.589 261.609 368.235 260.357 367.486 259.344C367.065 258.939 366.562 258.629 366.011 258.435C365.46 258.24 364.874 258.166 364.292 258.216C363.544 258.189 362.798 258.321 362.105 258.604C361.411 258.887 360.786 259.313 360.27 259.855C359.221 261.024 358.679 262.56 358.763 264.127V279.275C358.791 279.818 358.62 280.353 358.281 280.779C357.803 281.166 357.192 281.35 356.579 281.291H354.048C353.461 281.349 352.874 281.183 352.406 280.825Z" fill="white"/>
<path d="M405.192 280.675C402.852 279.734 400.845 278.121 399.422 276.042C397.912 273.675 397.16 270.904 397.268 268.099C397.268 263.165 398.589 259.42 401.23 256.863C403.866 254.305 407.617 253.012 412.483 253.012C417.349 253.012 420.965 254.26 423.435 256.742C425.906 259.224 427.141 262.759 427.141 267.528C427.141 268.866 426.524 269.543 425.303 269.543H404.243C404.186 270.655 404.397 271.764 404.858 272.777C405.32 273.79 406.018 274.677 406.894 275.365C409.05 276.839 411.637 277.554 414.246 277.395C417.097 277.435 419.908 276.725 422.396 275.335C422.586 275.207 422.802 275.125 423.029 275.094C423.3 275.094 423.511 275.274 423.661 275.62L425.047 278.087C425.148 278.283 425.205 278.499 425.213 278.719C425.196 278.875 425.141 279.024 425.051 279.153C424.962 279.282 424.841 279.386 424.701 279.456C423.122 280.419 421.405 281.135 419.609 281.577C417.552 282.068 415.442 282.3 413.327 282.269C410.536 282.289 407.769 281.747 405.192 280.675ZM420.468 265.211C420.524 264.201 420.379 263.19 420.04 262.237C419.701 261.284 419.176 260.408 418.494 259.66C417.689 258.942 416.747 258.394 415.724 258.047C414.702 257.701 413.62 257.564 412.544 257.645C410.294 257.495 408.075 258.236 406.367 259.706C405.65 260.426 405.091 261.288 404.725 262.235C404.36 263.183 404.195 264.197 404.243 265.211H420.468Z" fill="white"/>
<path d="M431.617 279.05V277.832C431.617 276.237 432.747 275.425 435.007 275.425H436.513C438.773 275.425 439.903 276.237 439.903 277.832V279.05C439.903 280.615 438.773 281.397 436.513 281.397H435.007C432.747 281.357 431.617 280.574 431.617 279.05ZM432.852 270.025C432.525 269.566 432.37 269.007 432.416 268.445L432.084 244.453C432.033 243.874 432.205 243.298 432.566 242.843C432.791 242.651 433.052 242.507 433.335 242.419C433.617 242.331 433.914 242.302 434.208 242.332H437.387C437.681 242.302 437.978 242.331 438.26 242.419C438.543 242.507 438.804 242.651 439.029 242.843C439.39 243.298 439.562 243.874 439.511 244.453L439.119 268.43C439.165 268.992 439.01 269.551 438.682 270.01C438.263 270.361 437.722 270.533 437.176 270.491H434.359C434.091 270.53 433.818 270.508 433.56 270.427C433.302 270.346 433.065 270.209 432.868 270.025H432.852Z" fill="white"/>
<path d="M158.239 240.917C157.305 243.519 155.226 244.753 153.72 247.34C152.214 249.927 151.581 257.659 153.283 260.878C154.581 263.137 156.404 265.05 158.599 266.456C160.794 267.862 163.295 268.719 165.892 268.956C168.071 269.045 170.222 268.445 172.039 267.241C172.885 266.674 173.633 265.973 174.253 265.165C174.819 264.299 175.246 263.35 175.518 262.352C175.54 262.273 175.581 262.201 175.639 262.142C175.721 262.09 175.814 262.059 175.91 262.052C176.57 261.957 177.191 261.681 177.703 261.254C177.958 261.041 178.163 260.774 178.304 260.472C178.444 260.171 178.517 259.842 178.516 259.509C178.466 259.086 178.315 258.682 178.077 258.328C177.839 257.975 177.519 257.684 177.145 257.479C176.384 257.087 175.581 256.785 174.75 256.576C172.747 255.929 170.894 254.921 168.935 254.184C164.966 252.775 161.323 250.58 158.224 247.731L158.239 240.917Z" fill="#FFA8A7"/>
<path d="M477.549 243.264C478.483 245.896 480.562 247.145 482.068 249.777C483.575 252.409 484.238 260.307 482.52 263.511C481.203 265.805 479.352 267.748 477.123 269.175C474.894 270.602 472.353 271.471 469.715 271.709C467.62 271.854 465.535 271.317 463.772 270.178C462.009 269.038 460.664 267.359 459.938 265.391C458.568 260.653 460.933 258.863 466.627 256.712C470.658 255.287 474.358 253.061 477.504 250.168L477.549 243.264Z" fill="#B16668"/>
<path d="M337.958 221.394C346.394 222.762 348.82 227.741 348.82 227.741H341.92C341.92 227.741 341.046 230.058 343.426 238.737C344.24 241.746 339.736 241.866 339.6 240.723C338.787 242.588 332.851 245.236 328.422 242.227C324.355 239.535 322.547 235.413 323.451 227.696C324.942 219.107 336.452 221.153 337.958 221.394Z" fill="#B16668"/>
</svg>
