<svg width="38" height="27" viewBox="0 0 38 27" fill="none" xmlns="http://www.w3.org/2000/svg">
<path d="M37.3846 22.8462C37.3846 25.1401 35.5247 27 33.2308 27H4.15385C1.85988 27 0 25.1401 0 22.8462V4.15385C0 1.85988 1.85988 0 4.15385 0H33.2308C35.5247 0 37.3846 1.85988 37.3846 4.15385V22.8462Z" fill="#CCD6DD"/>
<path d="M12.412 13.122L0.66387 24.8701C0.635832 24.8992 0.625447 24.9355 0.601562 24.9646C0.954639 25.5565 1.44687 26.0477 2.03879 26.4018C2.06891 26.378 2.10422 26.3676 2.13225 26.3395L13.8814 14.5904C14.2864 14.1843 14.2864 13.528 13.8814 13.122C13.4743 12.716 12.818 12.716 12.412 13.122ZM36.7878 24.9646C36.766 24.9355 36.7535 24.8992 36.7255 24.8711L24.9784 13.122C24.5713 12.716 23.915 12.716 23.509 13.122C23.1029 13.5291 23.1029 14.1854 23.509 14.5904L35.2571 26.3395C35.2841 26.3665 35.3215 26.378 35.3506 26.4018C35.9435 26.0488 36.4347 25.5565 36.7878 24.9646Z" fill="#99AAB5"/>
<path d="M33.2308 0H4.15385C1.85988 0 0 1.85988 0 4.15385V5.22346L15.0868 20.277C17.0536 22.2428 20.2666 22.2428 22.2355 20.277L37.3846 5.20165V4.15385C37.3846 1.85988 35.5247 0 33.2308 0Z" fill="#99AAB5"/>
<path d="M33.2321 0H4.15514C2.50607 0 1.09272 0.969923 0.421875 2.3625L15.7558 17.6975C17.3779 19.3195 20.0093 19.3195 21.6304 17.6975L36.9653 2.3625C36.2945 0.969923 34.8822 0 33.2321 0Z" fill="#E1E8ED"/>
</svg>
