<svg width="243" height="243" viewBox="0 0 243 243" fill="none" xmlns="http://www.w3.org/2000/svg">
<rect width="243" height="243" fill="#222222"/>
<path fill-rule="evenodd" clip-rule="evenodd" d="M234.228 101.526C231.428 122.399 228.268 133.425 209.823 155.285C191.378 177.145 106.972 191.526 75.7672 191.526C44.5624 191.526 6.1061 167.463 8.53319 139.583C10.9603 111.703 23.6228 88.9163 53.931 86.1112C84.9045 83.2445 112.112 96.5197 142.52 89.3999C168.81 83.2445 176.854 59.782 194.91 52.3798C231.428 37.4092 236.132 87.3252 234.228 101.526Z" fill="#674FA7"/>
<path d="M215.44 111.72C214.409 113.469 201.348 122.317 193.426 123.627C191.893 123.88 190.219 123.967 188.887 123.167C188.101 122.694 187.514 121.956 186.958 121.227C185.684 119.559 184.47 117.846 183.317 116.092C182.711 115.171 182.11 114.209 181.904 113.126C181.359 110.257 183.672 107.68 185.957 105.862C191.211 101.684 197.362 98.6395 203.871 96.9973C205.023 96.7066 206.245 96.4604 207.386 96.7906C209.239 97.3266 210.346 99.2012 211.053 100.996C211.76 102.79 212.312 104.753 213.724 106.065C214.047 106.365 216.472 109.971 215.44 111.72Z" fill="white"/>
<path fill-rule="evenodd" clip-rule="evenodd" d="M145.263 187.954C132.587 190.121 138.629 180.909 140.377 169.378C143.249 150.431 146.791 121.638 146.791 121.638C146.791 121.638 149.101 165.512 149.101 176.195C149.101 186.878 146.79 187.693 145.263 187.954Z" fill="white"/>
<path d="M131.719 177.515C132.043 180.566 132.384 183.681 133.68 186.462C132.973 180.165 132.265 173.868 131.558 167.572C131.471 166.794 131.497 165.804 132.212 165.487C132.817 172.597 133.72 179.682 134.916 186.717C135.058 187.553 133.804 188.03 133.099 187.559C132.394 187.089 132.169 186.173 132.009 185.341C130.841 179.279 130.199 173.116 130.093 166.943C128.606 167.236 127.564 168.677 127.263 170.162C126.963 171.647 127.252 173.18 127.542 174.667C128.474 179.453 129.406 184.24 130.339 189.026C130.775 191.265 131.211 193.578 130.729 195.808C128.879 187.361 127.392 178.835 126.273 170.261C112.077 178.941 93.7855 180.555 78.289 174.495C74.9044 173.172 71.5432 171.418 69.3078 168.552C67.5468 166.295 66.6071 163.493 66.1148 160.673C64.3665 150.657 67.9493 140.441 72.8122 131.512C74.6573 128.124 76.7587 124.595 76.6098 120.74C76.5586 119.413 76.2724 117.944 77.0474 116.865C77.1571 117.065 71.9736 79.9861 74.053 71.7844C79.059 52.0396 95.3211 49.3655 105.733 49.6091C112.719 49.7725 157.002 58.5729 163.4 70.5404C171.809 86.2692 170.023 99.4931 168.53 108.213C168.085 110.809 146.797 121.446 146.791 121.5C145.574 132.814 137.406 157.467 130.557 166.554C130.944 170.208 131.332 173.861 131.719 177.515Z" fill="white"/>
<path fill-rule="evenodd" clip-rule="evenodd" d="M29.5039 131.479C25.5116 129.885 20.7539 130.358 17.1545 132.706C16.806 132.933 16.305 132.68 16.1325 132.301C15.96 131.923 16.0245 131.483 16.1128 131.077C17.2623 125.787 21.8419 121.739 26.9347 119.879C32.0276 118.019 37.5983 118.014 43.0121 118.332C43.5492 118.363 44.1107 118.405 44.5689 118.687C45.0271 118.968 45.3354 119.57 45.107 120.057C42.9774 124.592 41.3732 129.372 40.3365 134.272C40.1684 135.067 39.345 135.594 38.5341 135.661C37.7232 135.727 36.9287 135.428 36.1928 135.081C33.8993 134.002 31.8583 132.419 29.5039 131.479" fill="white"/>
<path fill-rule="evenodd" clip-rule="evenodd" d="M152.218 51.616C152.416 48.5812 152.187 45.5189 151.54 42.5474L151.527 42.4841C151.417 41.9816 151.304 41.4648 151.405 40.9619C151.629 39.8498 152.864 39.1804 153.998 39.2037C155.132 39.2271 156.183 39.7685 157.187 40.2972C162 42.8328 166.9 45.4324 170.69 49.3355C170.808 52.4954 170.064 55.6138 169.329 58.6921L169.329 58.6922L169.26 58.9815C166.19 71.8479 163.677 84.8469 161.729 97.93C161.543 99.184 161.189 100.663 159.999 101.102C159.146 101.417 158.154 101.015 157.548 100.337C156.942 99.6587 156.652 98.7584 156.45 97.8717C155.951 95.6839 155.891 93.397 156.275 91.1861C156.509 89.834 156.905 88.5189 157.301 87.2033L157.301 87.2032L157.301 87.203C157.657 86.0221 158.013 84.8409 158.252 83.6324C158.491 82.4239 158.611 81.1956 158.728 79.9692C159.349 73.4481 159.876 66.9179 160.308 60.3815C160.37 59.4579 160.425 58.5052 160.123 57.6303C159.584 56.0744 158.017 55.0909 156.433 54.64C156.16 54.5622 155.883 54.4961 155.606 54.4301C154.961 54.2762 154.316 54.1225 153.728 53.8227C152.886 53.394 152.156 52.5582 152.218 51.616ZM155.159 51.3666C157.397 51.8389 159.584 52.5521 161.671 53.4899C162.091 53.6787 162.533 53.8998 162.76 54.3006C162.945 54.6279 162.956 55.0221 162.961 55.3983C163.027 59.8161 163.041 64.2457 162.573 68.6391C162.293 71.27 161.841 73.8778 161.389 76.4854C161.246 77.3108 161.103 78.1362 160.966 78.9623C160.285 83.0499 159.737 87.1597 159.323 91.2829C159.023 94.2747 158.803 97.3668 159.733 100.226C160.211 100.139 160.395 99.5637 160.485 99.0868L169.085 53.7568C169.294 52.6585 169.502 51.5229 169.256 50.4323C168.826 48.523 167.132 47.1954 165.498 46.1181C162.352 44.0443 159.004 42.2781 155.516 40.8529C155.226 44.3488 155.107 47.859 155.159 51.3666ZM159.582 81.1373C161.156 73.0533 161.867 64.8014 161.7 56.5672C161.687 55.9453 161.654 55.277 161.273 54.7848C160.994 54.4241 160.569 54.2129 160.153 54.0265C158.59 53.3268 156.948 52.8061 155.268 52.4779C154.782 52.3829 154.067 52.4858 154.088 52.9808L160.127 55.4762C160.481 55.6225 160.858 55.7881 161.058 56.1149C161.255 56.4355 161.235 56.8381 161.21 57.2132L159.582 81.1373ZM153.962 40.0532C153.464 39.7232 152.745 40.0634 152.468 40.5924C152.19 41.1214 152.233 41.7547 152.296 42.3486C152.388 43.2196 152.509 44.091 152.63 44.9625L152.63 44.9627L152.63 44.963L152.63 44.9632L152.63 44.9634L152.63 44.9636L152.631 44.9638L152.631 44.964C152.967 47.3834 153.304 49.8038 153.018 52.2182C153.475 52.3749 153.985 52.053 154.206 51.624C154.428 51.195 154.433 50.691 154.434 50.2082L154.449 41.5017C154.45 40.9696 154.406 40.3472 153.962 40.0532ZM158.434 100.03C158.159 97.878 158.087 95.7006 158.219 93.5356C158.29 92.3781 158.418 91.2246 158.546 90.0713L158.547 90.071L158.547 90.0708C158.716 88.5456 158.886 87.0207 158.922 85.4873C157.667 89.2203 157.194 93.2136 157.54 97.1363C157.63 98.1567 157.797 99.2267 158.434 100.03ZM159.124 83.282C159.326 83.1915 159.41 82.908 159.291 82.7216C159.086 82.8227 158.999 83.1088 159.113 83.3069L159.124 83.282ZM157.248 64.5865C147.267 58.431 135.981 54.743 124.695 51.5606C121.087 50.5433 117.449 49.5685 113.723 49.1512C102.685 47.9146 91.4947 51.7231 82.3165 57.9786C78.6355 60.4874 75.084 63.5734 73.4936 67.7344C72.3136 70.8218 72.3217 74.2207 72.4355 77.5239C72.828 88.9163 74.2898 100.242 75.7499 111.547C76.8915 111.341 77.0042 109.762 76.8389 108.614C75.3207 98.0711 74.4694 87.4321 74.2919 76.7818C74.2421 73.7954 74.2578 70.7336 75.2913 67.9312C77.1621 62.8583 81.9875 59.5407 86.7222 56.9298C92.6858 53.6412 99.1684 50.8768 105.977 50.7301C114.224 50.5523 122.042 54.2107 129.246 58.2285C133.263 60.4685 137.335 62.9699 139.891 66.7936C142.211 70.2657 143.054 74.4972 143.663 78.6285C145.595 91.7406 145.666 105.047 145.733 118.3C145.735 118.837 145.702 119.451 145.282 119.784C144.995 120.012 144.603 120.041 144.237 120.06L130.782 120.76C137.052 122.563 144.007 121.852 149.782 118.818L164.733 110.964C166.128 110.231 167.568 109.461 168.53 108.212C169.854 106.494 170.043 104.182 170.106 102.013C170.336 94.0051 169.536 85.9678 167.729 78.1626C168.356 86.606 168.442 95.0893 167.989 103.544C167.912 104.988 167.796 106.502 167.011 107.716C166.172 109.013 164.715 109.748 163.326 110.423L147.191 118.265C147.859 105.728 147.341 93.1293 145.646 80.6901C145.077 76.5063 144.349 72.264 142.435 68.5006C137.91 59.6069 127.895 55.2074 118.639 51.4795C132.477 55.5281 146.474 59.6436 158.923 66.9167C159.085 65.9119 158.115 65.1207 157.248 64.5865ZM208.812 102.854C209.529 104.702 210.537 106.673 212.391 107.378C212.83 107.412 213.093 106.829 212.948 106.413C212.828 106.066 212.545 105.813 212.267 105.564C212.236 105.536 212.204 105.508 212.173 105.48C212.15 105.459 212.127 105.438 212.104 105.417C210.925 104.321 210.346 102.772 209.775 101.246L209.775 101.244C209.662 100.943 209.55 100.643 209.433 100.347C208.727 98.5526 207.619 96.678 205.766 96.142C204.625 95.8118 203.403 96.058 202.251 96.3487C195.742 97.9909 189.591 101.035 184.337 105.214C182.052 107.031 179.739 109.608 180.284 112.477C180.49 113.56 181.091 114.522 181.697 115.444C182.85 117.197 184.064 118.91 185.338 120.578C185.894 121.308 186.481 122.045 187.267 122.518C188.599 123.319 190.273 123.232 191.806 122.978C199.729 121.669 206.509 116.745 212.961 111.965C213.297 111.716 213.647 111.451 213.82 111.071C213.994 110.691 213.92 110.163 213.551 109.967C213.128 109.742 212.629 110.052 212.252 110.348C206.248 115.048 199.834 119.642 192.389 121.293C190.978 121.606 189.423 121.791 188.153 121.1C187.203 120.583 186.561 119.653 185.956 118.757L182.2 113.2C181.884 112.732 181.556 112.229 181.544 111.664C181.532 111.1 181.989 110.489 182.549 110.562C187.813 111.246 193.102 111.738 198.403 112.037C198.825 112.06 199.266 112.08 199.65 111.904C200.146 111.678 200.448 111.177 200.712 110.701C202.956 106.656 204.67 102.317 205.796 97.8307C207.294 98.9046 207.993 100.724 208.66 102.459C208.71 102.591 208.761 102.723 208.812 102.854ZM204.178 97.4756C203.175 101.228 201.692 104.851 199.775 108.229C199.454 108.795 199.097 109.378 198.535 109.707C197.82 110.126 196.931 110.047 196.107 109.955L182.994 108.492C185.17 105.617 188.402 103.751 191.631 102.148C194.688 100.63 197.826 99.2766 201.028 98.0945C202.041 97.7203 203.104 97.3577 204.178 97.4756ZM131.719 177.514C132.043 180.565 132.384 183.681 133.68 186.461L131.558 167.571C131.471 166.793 131.497 165.804 132.212 165.486C132.817 172.597 133.72 179.682 134.916 186.717C135.058 187.552 133.804 188.029 133.099 187.559C132.395 187.088 132.169 186.172 132.009 185.34C130.842 179.278 130.2 173.115 130.093 166.942C128.606 167.235 127.564 168.676 127.263 170.161C126.963 171.646 127.253 173.179 127.542 174.666L130.339 189.026C130.775 191.264 131.211 193.578 130.73 195.807C128.879 187.36 127.392 178.834 126.273 170.26C112.077 178.94 93.7857 180.555 78.2892 174.494C74.9046 173.171 71.5434 171.417 69.308 168.552C67.547 166.295 66.6073 163.492 66.115 160.672C64.3667 150.656 67.9495 140.44 72.8123 131.511C72.939 131.279 73.0669 131.045 73.1952 130.811C74.9355 127.637 76.7487 124.33 76.61 120.74C76.6008 120.502 76.5842 120.261 76.5674 120.017C76.4903 118.9 76.4111 117.75 77.0476 116.864C77.9013 118.417 78.2265 120.255 77.9575 122.007C92.6538 121.374 107.372 121.247 122.077 121.625C122.248 122.301 121.269 122.615 120.571 122.605C106.848 122.4 93.1189 122.634 79.4108 123.306C78.9766 123.327 78.521 123.355 78.1529 123.586C77.7658 123.829 77.5402 124.256 77.3321 124.663C73.4416 132.275 69.5383 139.999 67.6577 148.338C66.6907 152.627 66.3203 157.321 68.3023 161.245C69.0543 162.733 70.1177 164.048 71.3051 165.219C77.6796 171.507 87.2249 173.434 96.1773 173.284C101.891 173.188 107.592 172.367 113.1 170.846C118.94 169.234 124.764 166.693 128.75 162.13C131.091 159.451 132.682 156.207 134.075 152.933C136.736 146.683 138.776 140.169 140.157 133.518C141.022 133.7 141.034 134.923 140.835 135.784C138.365 146.435 135.496 157.789 127.363 165.098C120.018 171.699 109.668 173.747 99.808 174.299C94.1125 174.618 88.3271 174.518 82.8105 173.066C77.2938 171.614 72.0264 168.71 68.5242 164.207C69.5457 168.102 73.0057 170.881 76.6079 172.68C86.066 177.403 97.2349 177.153 107.678 175.511C114.635 174.418 121.776 172.623 127.19 168.12C131.818 164.27 134.767 158.772 136.987 153.177C139.444 146.984 141.149 140.492 142.051 133.89C142.613 133.535 143.029 134.528 142.958 135.189C141.741 146.503 137.407 157.466 130.557 166.553L131.719 177.514ZM125.142 196.862C124.538 195.843 124.15 194.697 124.009 193.521L123.142 196.459L120.954 188.114C120.784 187.467 120.371 186.657 119.716 186.796C119.08 186.931 119.008 187.804 119.103 188.448C119.58 191.685 120.489 194.859 121.799 197.858L119.472 195.816C119.359 196.788 119.615 197.798 120.177 198.599C118.965 197.707 117.339 197.402 115.886 197.796C116.924 199.239 118.334 200.412 119.941 201.17L117.975 198.426C119.564 199.343 121.229 200.13 122.948 200.774L121.282 198.685L123.34 199.255C121.765 195.672 120.16 191.952 120.198 188.037C120.795 191.222 121.667 194.354 122.804 197.388C122.996 197.902 123.21 198.433 123.621 198.798C124.031 199.163 124.697 199.3 125.127 198.959C125.461 198.693 125.559 198.235 125.634 197.815L126.562 192.673L127.58 199.05C128.352 197.1 130.863 196.611 132.961 196.598C135.73 196.581 138.52 196.886 141.303 197.19H141.304H141.304H141.304H141.304H141.304H141.304H141.305H141.305C146.322 197.739 151.316 198.285 156.123 196.935C155.982 197.679 155.735 198.402 155.392 199.076C159.271 198.511 163.196 198.263 167.116 198.336C168.771 198.366 170.431 198.453 172.091 198.541H172.092H172.092H172.092H172.092H172.092H172.092H172.092H172.092C176.481 198.771 180.871 199.001 185.171 198.186L156.63 197.936C157.166 197.904 157.577 197.281 157.394 196.776C157.211 196.271 156.497 196.055 156.065 196.374C155.784 195.482 154.523 195.085 153.782 195.656C154.211 194.332 155.061 193.147 156.177 192.315C154.917 192.247 153.637 192.633 152.624 193.386L155.694 179.178C155.435 178.955 155.002 179.105 154.81 179.389C154.62 179.669 154.599 180.027 154.579 180.365L154.578 180.376C154.291 185.227 152.58 189.986 149.713 193.91L148.587 190.652L146.973 194.544C146.241 193.977 145.204 193.834 144.347 194.182C144.566 195.014 145.231 195.714 146.051 195.974L146.433 194.951L148.954 196.64C147.991 195.63 147.782 193.978 148.464 192.76L149.989 195.319L152.947 189.471C152.963 191.819 151.957 194.039 150.97 196.17C152.043 195.33 152.964 194.298 153.679 193.139C154.368 194.36 153.615 195.997 152.416 196.724C151.216 197.451 149.733 197.491 148.332 197.431C146.195 197.341 144.04 197.072 141.889 196.804C137.058 196.202 132.24 195.601 127.65 197.024L126.988 190.922C125.977 192.749 125.345 194.784 125.142 196.862ZM153.937 197.025C153.833 196.901 153.834 196.702 153.939 196.579L154.022 196.61C154.162 196.275 154.752 196.302 154.86 196.649C154.588 196.845 154.269 196.975 153.937 197.025ZM169.53 132.192C166.206 130.511 162.25 130.965 158.56 131.471C157.518 131.614 156.455 131.764 155.51 132.228C154.566 132.692 153.743 133.533 153.581 134.572C144.569 133.447 135.933 129.481 129.208 123.378C127.749 122.053 126.259 120.167 126.916 118.308C127.122 117.724 127.524 117.231 127.941 116.774C131.076 113.336 135.399 111.269 139.608 109.284C134.838 109.702 130.262 112.022 127.105 115.622C126.381 116.447 125.714 117.369 125.465 118.437C124.85 121.076 126.899 123.551 128.951 125.322C135.495 130.97 143.727 134.638 152.303 135.727C152.818 135.793 152.844 136.516 152.797 137.032C152.588 139.329 153.84 141.57 155.575 143.089C157.31 144.608 159.483 145.52 161.64 146.337C168.318 148.866 175.249 150.729 182.295 151.889C182.761 151.966 183.4 151.929 183.498 151.468C181.872 150.392 179.915 149.982 178.001 149.582L177.692 149.517C172.84 148.495 168.053 147.165 163.369 145.536C161.448 144.868 159.522 144.139 157.847 142.985C156.172 141.831 154.749 140.201 154.213 138.238C153.949 137.269 154.308 135.823 155.305 135.945C159.364 136.441 163.536 136.932 167.5 135.925C168.397 135.697 169.332 135.353 169.879 134.606C170.426 133.859 170.356 132.609 169.53 132.192ZM159.289 134.875C157.896 134.635 156.472 134.57 155.063 134.684C155.747 133.383 157.42 133.04 158.877 132.842C162.044 132.411 165.341 131.99 168.375 132.994C168.575 133.06 168.789 133.145 168.897 133.326C169.04 133.565 168.936 133.889 168.733 134.079C168.53 134.269 168.254 134.356 167.986 134.43C165.168 135.218 162.174 135.371 159.289 134.875ZM113.174 200.509C115.506 200.444 117.852 200.96 119.942 201.996C119.384 202.799 118.261 202.912 117.283 202.949L91.7361 203.919C91.502 203.89 91.4579 203.528 91.6238 203.36C91.7896 203.192 92.0489 203.171 92.2845 203.159L117.224 201.943C115.783 201.811 114.377 201.313 113.174 200.509ZM64.0088 116.018C63.6447 117.759 65.1177 119.617 66.8916 119.749C63.9909 124.12 58.7657 126.278 53.7452 127.801C50.6118 128.751 47.136 129.532 44.1489 128.19C43.7782 128.417 44.1735 128.975 44.5648 129.163C47.4718 130.564 50.9182 129.784 54.0103 128.861C58.5449 127.508 63.219 125.758 66.3045 122.171C66.4309 122.024 66.5568 121.872 66.6836 121.72C67.4777 120.766 68.3058 119.77 69.4999 119.549C73.344 118.838 76.5457 116.431 79.7094 114.052C80.427 113.512 81.1426 112.974 81.8634 112.457C86.2437 109.318 91.102 106.846 96.2189 105.155C96.6708 105.005 97.2204 104.728 97.1802 104.254C90.8362 104.836 85.291 108.619 80.1779 112.419L80.0074 112.546C76.5324 115.13 72.9012 117.829 68.6254 118.469C70.0221 117.368 69.7272 114.822 68.1514 113.997C66.5757 113.172 64.3729 114.277 64.0088 116.018ZM65.1927 117.082C64.9075 116.238 65.3476 115.233 66.1298 114.805C66.3518 114.684 66.6002 114.603 66.8533 114.603C67.6885 114.602 68.2984 115.495 68.3039 116.33C68.3094 117.166 67.886 117.936 67.4745 118.663C66.512 118.515 65.5041 118.005 65.1927 117.082ZM160.122 98.4714C159.885 98.2081 159.958 97.8535 160.033 97.4862C160.087 97.2266 160.141 96.9606 160.089 96.7161C160.043 96.5041 159.92 96.3235 159.796 96.1424C159.686 95.9821 159.576 95.8214 159.519 95.6381C159.532 95.3957 159.856 95.2714 160.077 95.3719C160.298 95.4724 160.422 95.7096 160.499 95.9397C160.78 96.7794 160.636 97.75 160.122 98.4714ZM138.736 80.044C139.327 78.6425 140.499 77.3997 141.993 77.1153C142.477 77.0232 142.461 76.226 142.038 75.9754C141.614 75.7248 141.07 75.873 140.626 76.0845C138.555 77.0699 137.248 79.2389 136.736 81.4736C136.224 83.7084 136.394 86.0357 136.566 88.3219L137.481 100.474C137.512 100.887 137.55 101.321 137.78 101.666C138.249 102.368 139.254 102.39 140.096 102.336L144.359 102.065C143.412 101.323 142.14 101.01 140.956 101.229C140.265 101.357 139.571 100.901 139.204 100.301C138.838 99.7006 138.731 98.9825 138.64 98.2854C138.046 93.7248 137.828 89.1152 137.989 84.5188C138.042 82.9987 138.145 81.4454 138.736 80.044ZM149.621 187.91C149.379 188.085 149.136 187.685 149.101 187.388C147.453 173.54 147.205 159.567 146.958 145.623L146.792 136.223C146.787 135.955 146.791 135.662 146.963 135.457C147.26 135.104 147.883 135.266 148.141 135.647C148.4 136.029 148.4 136.523 148.392 136.984C148.138 150.705 148.305 164.454 149.619 178.115L149.667 178.614C149.968 181.717 150.274 184.867 149.621 187.91ZM135.924 100.616C135.563 100.418 135.118 100.53 134.723 100.647C116.459 106.049 98.2358 111.619 80.2814 117.977C79.9453 118.096 79.5609 118.267 79.4838 118.615C79.4022 118.984 79.7492 119.336 80.1205 119.404C80.4919 119.473 80.8675 119.34 81.2218 119.21C99.2151 112.59 117.479 106.708 135.953 101.581C136.35 101.47 136.285 100.815 135.924 100.616Z" fill="#00160A"/>
<path fill-rule="evenodd" clip-rule="evenodd" d="M200.999 183.25C200.573 183.437 200.113 183.611 199.655 183.532C199.197 183.453 198.769 183.024 198.861 182.568C199.702 178.406 198.646 173.898 196.045 170.542C195.134 169.365 194.048 168.33 193.16 167.136C192.6 166.384 192.102 165.438 192.386 164.544C192.79 163.272 194.417 162.963 195.748 162.872C198.843 162.661 201.938 162.45 205.033 162.239C206.459 162.142 208.102 162.128 209.054 163.194C211.704 166.162 216.869 166.361 219.739 163.606C220.184 163.18 220.743 164.029 220.725 164.644C220.67 166.579 219.872 168.484 218.532 169.881C218.216 170.211 217.812 170.534 217.358 170.487C216.903 170.439 216.568 169.787 216.93 169.509C217.708 168.912 218.499 168.3 219.044 167.485C219.589 166.671 219.853 165.603 219.481 164.697C217.482 167.226 215.464 169.74 213.427 172.238C209.894 176.571 206.117 181.002 200.999 183.25M206.581 170.502C206.073 170.642 205.53 170.534 205.023 170.391C201.37 169.359 198.004 166.504 194.268 167.172C198.625 170.681 200.938 176.565 200.138 182.102C203.009 181.487 205.276 179.344 207.309 177.226C210.318 174.092 213.176 170.811 215.868 167.4C213.933 167.384 212.005 166.826 210.361 165.806C208.33 166.308 208.598 169.944 206.581 170.502M209.234 164.739C208.024 163.312 205.849 163.356 203.986 163.52C201.555 163.733 199.124 163.947 196.694 164.16C195.707 164.247 194.574 164.42 194.059 165.267C198.266 166.148 202.367 167.531 206.248 169.378C206.748 167.81 207.748 166.406 209.067 165.422C209.215 165.312 209.385 165.17 209.365 164.986C209.355 164.892 209.295 164.811 209.234 164.739V164.739Z" fill="#FFB61D"/>
<path fill-rule="evenodd" clip-rule="evenodd" d="M29.0332 130.719C25.3722 129.255 21.0094 129.689 17.7088 131.846C17.3893 132.055 16.9299 131.822 16.7717 131.475C16.6135 131.127 16.6727 130.723 16.7536 130.35C17.8078 125.49 22.0071 121.771 26.6772 120.063C31.3473 118.354 36.4556 118.349 41.42 118.641C41.9125 118.67 42.4274 118.709 42.8476 118.967C43.2678 119.226 43.5505 119.779 43.341 120.226C41.3882 124.392 39.9171 128.784 38.9665 133.285C38.8124 134.015 38.0573 134.5 37.3138 134.56C36.5702 134.621 35.8416 134.346 35.1667 134.028C33.0637 133.037 31.1921 131.582 29.0332 130.719M29.4516 125.801C29.1253 126.066 28.6154 125.926 28.3084 125.639C28.0014 125.352 27.8264 124.955 27.5851 124.61C26.2907 122.764 23.3202 122.917 21.5595 124.326C19.7988 125.735 18.9467 127.961 18.1709 130.078C23.3364 127.835 29.6987 128.64 34.1425 132.1C34.7492 132.572 35.3512 133.104 36.0984 133.286C36.8455 133.468 37.7867 133.141 37.9759 132.396C38.9869 128.414 40.2327 124.492 41.7047 120.657C38.8802 124.168 32.9487 122.96 29.4516 125.801M28.3276 123.68C28.6177 124.044 29.1444 124.141 29.6029 124.059C30.0613 123.976 30.4779 123.748 30.9051 123.562C32.3758 122.923 34.0048 122.78 35.5816 122.488C37.1584 122.196 38.7848 121.701 39.8948 120.544C37.3904 120.536 34.8859 120.529 32.3814 120.521C29.8644 120.513 27.1522 120.567 25.1302 122.066C26.3611 122.111 27.5606 122.716 28.3276 123.68Z" fill="#FFB61D"/>
<path fill-rule="evenodd" clip-rule="evenodd" d="M146.651 130.384C146.645 128.181 146.639 125.978 146.634 123.775C146.632 123.143 146.63 122.51 146.628 121.877C146.627 121.441 146.7 120.895 147.115 120.76C147.429 120.657 147.774 120.882 147.92 121.178C148.067 121.473 148.065 121.818 148.06 122.148C148.015 125.222 147.969 128.296 147.923 131.371C147.917 131.813 147.843 132.357 147.428 132.512C146.738 132.121 146.653 131.178 146.651 130.384H146.651Z" fill="#00160A"/>
<path fill-rule="evenodd" clip-rule="evenodd" d="M142.253 128.345C141.934 128.485 141.77 127.959 141.819 127.615C141.995 126.381 142.172 125.145 142.472 123.935C142.659 123.182 142.928 122.39 143.55 121.926C144.172 121.463 145.24 121.544 145.544 122.257C145.692 122.603 145.63 122.998 145.563 123.368C145.144 125.656 144.58 127.918 143.876 130.135C143.846 130.229 143.813 130.328 143.742 130.396C143.568 130.562 143.255 130.45 143.135 130.242C143.015 130.034 143.031 129.778 143.05 129.538C143.336 129.517 143.47 129.181 143.539 128.902C143.819 127.763 144.1 126.625 144.381 125.486C144.6 124.601 144.799 123.592 144.29 122.834C143.768 123.156 143.572 123.807 143.416 124.4C143.104 125.594 142.791 126.788 142.478 127.982C142.441 128.125 142.388 128.286 142.253 128.345L142.253 128.345Z" fill="#00160A"/>
</svg>
