<svg width="548" height="548" viewBox="0 0 548 548" fill="none" xmlns="http://www.w3.org/2000/svg">
<rect width="548" height="548" fill="#F6F6F6"/>
<path fill-rule="evenodd" clip-rule="evenodd" d="M499.324 367.204C462.283 441.9 301.993 506.197 142.707 437.163C51.0884 397.455 16.4317 301.771 14.617 257.514C13.1899 222.71 39.1364 185.603 54.8001 169.66C88.0955 135.771 265.789 93.5608 306.377 95.7286C363.675 94.121 399.421 143.849 444.521 146.22C476.588 147.906 572.614 219.408 499.324 367.204Z" fill="#674FA7"/>
<path fill-rule="evenodd" clip-rule="evenodd" d="M276.046 252.126C275.86 254.903 276.088 257.708 276.72 260.418C276.986 261.561 278.702 261.772 279.593 261.009C280.485 260.245 280.722 258.976 280.818 257.807C280.96 256.077 280.915 254.333 280.683 252.613C280.563 251.725 280.379 250.808 279.843 250.089C279.307 249.37 278.327 248.91 277.49 249.231C276.424 249.64 276.123 250.987 276.046 252.126Z" fill="#F6F6F6"/>
<path fill-rule="evenodd" clip-rule="evenodd" d="M141.152 183.978C150.942 179.13 162.632 178.261 173.03 181.609C175.643 176.589 179.492 172.219 184.14 168.991C185.037 168.369 186.321 167.807 187.128 168.542C186.803 173.701 186.478 178.874 186.782 184.034C187.02 188.05 187.638 192.044 187.695 196.067C187.858 207.694 183.3 218.955 177.099 228.792C191.986 238.805 203.209 254.143 208.247 271.362C206.14 272.45 151.014 274.366 121.195 271.982C120.504 272.45 119.858 271.319 119.779 270.489C118.981 262.088 118.533 253.534 120.276 245.277C122.019 237.02 126.185 228.994 133.067 224.11C126.68 210.205 129.164 193.147 121.372 179.977C120.91 179.195 120.52 177.976 121.33 177.564C121.631 177.411 121.99 177.459 122.322 177.515C127.754 178.437 132.931 180.826 137.157 184.362C138.247 185.274 139.878 184.609 141.152 183.978Z" fill="#F6F6F6"/>
<path fill-rule="evenodd" clip-rule="evenodd" d="M352.397 270.511C352.36 270.511 358.057 261.969 361.551 257.995C364.741 254.366 366.612 249.601 366.741 244.771C355.71 244.335 344.734 242.513 334.153 239.36C332.534 238.878 330.864 238.33 329.637 237.169C326.77 234.458 327.48 229.73 328.958 226.073C330.752 221.633 333.358 217.523 336.61 214.007C337.722 212.806 338.928 211.645 339.656 210.179C340.384 208.712 340.537 206.826 339.555 205.516C337.899 203.309 337.551 200.41 337.378 197.657C337.206 194.903 337.127 192.04 335.876 189.581C334.626 187.122 331.785 185.21 329.147 186.017C328.507 185.04 329.771 183.912 330.884 183.559C335.087 182.223 339.795 183.392 343.479 185.816C347.164 188.239 349.959 191.793 352.36 195.492C353.297 196.937 354.883 198.633 356.411 197.839C366.847 192.42 379.584 191.631 390.61 195.719C392.143 196.287 394.499 196.53 394.811 194.926C396.367 186.936 403.035 180.188 411.005 178.537C407.873 180.783 407.684 185.353 408.311 189.157C408.937 192.96 410.042 197.012 408.478 200.535C407.216 203.378 410.395 206.052 412.97 207.799C416.858 210.437 420.334 213.68 423.236 217.376C426.107 221.033 428.5 225.732 427.189 230.192C425.472 236.031 418.601 238.342 412.688 239.783C406.916 241.191 401.144 242.598 395.372 244.005C395.266 249.636 397.276 255.282 400.917 259.578C403.838 263.025 408.082 266.577 407.153 270.998C409.097 274.081 390.846 273.919 352.397 270.511Z" fill="#F6F6F6"/>
<path fill-rule="evenodd" clip-rule="evenodd" d="M366.25 346.659C368.239 347.889 370.444 349.363 372.718 348.814C377.982 347.544 383.62 347.863 388.707 349.719C390.849 350.5 392.791 348.284 394.133 346.442C398.029 341.093 403.124 336.623 408.933 333.456C412.939 340.032 408.881 349.131 412.365 355.999C417.755 366.627 416.323 380.354 408.855 389.64C416.693 397.298 422.022 407.482 423.844 418.287C422.913 418.562 375.175 424.483 348.962 417.379C348.672 409.763 351.418 402.074 356.466 396.366C348.971 387.539 345.315 375.562 346.603 364.055C346.737 362.858 346.909 361.581 346.375 360.5C343.579 354.838 341.653 348.747 340.686 342.507C340.628 342.134 340.58 341.725 340.777 341.404C341.038 340.976 341.609 340.883 342.109 340.842C350.499 340.159 359.091 342.229 366.25 346.659Z" fill="#F6F6F6"/>
<path fill-rule="evenodd" clip-rule="evenodd" d="M139.212 419.322C140.166 413.612 141.119 407.902 142.073 402.192C142.321 400.71 142.286 398.725 140.857 398.26C136.401 396.812 132.635 393.367 130.797 389.057C130.218 387.699 128.431 387.216 127.01 387.616C125.589 388.015 124.455 389.061 123.38 390.072C123.993 387.675 126.196 385.771 128.657 385.51C129.492 384.103 128.296 382.158 126.711 381.749C125.126 381.34 123.456 382.054 122.133 383.018C122.03 381.492 123.886 380.746 125.293 380.146C126.7 379.547 128.074 377.654 126.874 376.706C126.351 376.292 125.608 376.366 124.948 376.46C123.041 376.733 121.133 377.006 119.226 377.279C119.443 375.743 121.438 375.349 122.985 375.23C124.531 375.111 126.528 374.358 126.356 372.816C125.693 366.876 127.131 360.853 129.532 355.379C131.521 350.845 125.668 346.303 126.052 341.366C126.082 340.984 126.173 340.565 126.481 340.337C126.849 340.065 127.365 340.174 127.803 340.309C130.816 341.239 133.61 342.871 135.899 345.04C137.01 346.093 138.8 345.375 140.198 344.751C145.353 342.45 151.395 342.212 156.716 344.1C161.52 345.804 165.782 337.582 170.543 339.404C169.328 343.403 168.113 347.403 166.897 351.402C166.562 352.506 166.245 353.773 166.854 354.752C168.908 358.05 170.153 361.848 170.451 365.722C170.661 368.451 171.19 372.138 173.918 372.352C172.73 372.874 171.419 373.526 171.008 374.757C170.596 375.988 172.003 377.613 173.068 376.87C173.987 376.229 175.472 376.764 175.771 377.844C174.196 377.69 172.488 377.862 171.257 378.855C170.026 379.849 169.544 381.86 170.586 383.049C172.876 382.106 175.579 382.23 177.773 383.378C176.466 384.339 174.67 384.055 173.05 383.958C171.431 383.862 169.458 384.236 168.885 385.753C166.972 390.82 162.271 394.729 156.941 395.686C154.316 396.158 153.895 399.709 154.111 402.367C154.565 407.945 155.019 413.523 155.473 419.1C154.538 419.988 143.681 421.219 139.212 419.322Z" fill="#F6F6F6"/>
<path fill-rule="evenodd" clip-rule="evenodd" d="M66.5533 395.367C66.3673 398.144 66.5951 400.948 67.2269 403.659C67.4934 404.802 69.2087 405.013 70.1002 404.25C70.9917 403.486 71.2294 402.217 71.3254 401.047C71.4674 399.318 71.4218 397.573 71.1898 395.854C71.07 394.965 70.8858 394.049 70.3499 393.33C69.814 392.611 68.8343 392.151 67.9971 392.472C66.9308 392.881 66.6297 394.227 66.5533 395.367V395.367Z" fill="#F6F6F6"/>
<path fill-rule="evenodd" clip-rule="evenodd" d="M282.183 410.676C282.515 410.862 282.468 411.398 282.187 411.656C281.907 411.914 281.501 411.97 281.122 412.014C279.8 412.166 278.346 412.288 277.251 411.533C277.807 411.136 278.364 410.738 278.921 410.341C278.571 409.839 277.884 409.737 277.277 409.663C276.669 409.589 275.978 409.443 275.681 408.908C275.385 408.372 276.031 407.52 276.517 407.892C278.018 409.041 280.224 409.172 281.85 408.208C282.921 407.574 283.934 406.473 285.155 406.711C284.301 408.373 282.611 409.577 280.761 409.841C280.804 410.487 281.598 410.953 282.183 410.676Z" fill="#00160A"/>
<path fill-rule="evenodd" clip-rule="evenodd" d="M69.9495 409.81C68.6266 409.964 67.1707 410.086 66.0751 409.329C66.6362 408.931 67.1973 408.532 67.7583 408.134C67.3718 407.645 66.6783 407.561 66.0609 407.477C65.4435 407.392 64.7411 407.202 64.4854 406.634C64.2297 406.065 64.9945 405.27 65.4307 405.715C66.5029 406.809 68.2841 406.878 69.7328 406.382C71.1815 405.885 72.4178 404.928 73.7387 404.153C73.7725 406.107 71.4837 407.137 69.5998 407.659C69.6436 408.296 70.4323 408.752 71.0064 408.472C71.3398 408.657 71.2942 409.193 71.0141 409.452C70.7341 409.711 70.3281 409.766 69.9495 409.81V409.81Z" fill="#00160A"/>
<path fill-rule="evenodd" clip-rule="evenodd" d="M67.0598 405.95C64.9901 405.179 64.5733 402.485 64.4883 400.278C64.432 398.818 64.3758 397.358 64.3195 395.898C64.288 395.081 64.2588 394.245 64.5002 393.463C64.903 392.159 66.0995 391.136 67.4504 390.941C68.8013 390.746 70.238 391.389 70.9928 392.527C71.4242 393.177 71.6345 393.946 71.7994 394.709C72.1511 396.334 72.3267 397.998 72.3223 399.661C72.318 401.273 72.1196 402.957 71.225 404.298C70.3303 405.639 68.5702 406.513 67.0598 405.95H67.0598ZM68.9141 404.736C69.9852 404.398 70.3788 403.105 70.5307 401.992C70.7942 400.061 70.8164 398.097 70.5965 396.16C70.4858 395.185 70.2956 394.173 69.6958 393.396C69.096 392.62 67.9734 392.166 67.0984 392.61C66.0132 393.161 65.8883 394.634 65.9087 395.851C65.9351 397.437 65.9616 399.023 65.9881 400.608C66.0045 401.595 66.031 402.622 66.4879 403.497C66.9449 404.371 67.9732 405.032 68.9141 404.736V404.736Z" fill="#00160A"/>
<path fill-rule="evenodd" clip-rule="evenodd" d="M277.165 392.805C278.637 391.865 280.721 392.54 281.829 393.889C282.937 395.238 283.269 397.059 283.371 398.802C283.43 399.812 283.426 400.825 283.357 401.834C283.261 403.252 283.02 404.711 282.235 405.895C281.449 407.078 280 407.917 278.612 407.612C277.419 407.351 276.519 406.312 276.087 405.17C275.655 404.028 275.614 402.781 275.577 401.561C275.542 400.399 275.507 399.237 275.472 398.075C275.414 396.141 275.534 393.847 277.165 392.805ZM278.915 406.277C279.718 406.475 280.568 405.984 281.024 405.294C281.48 404.604 281.621 403.757 281.707 402.934C281.897 401.123 281.874 399.291 281.641 397.485C281.522 396.56 281.33 395.604 280.761 394.865C280.192 394.127 279.143 393.682 278.296 394.073C277.28 394.542 277.051 395.863 277.001 396.98C276.907 399.098 276.976 401.223 277.207 403.33C277.339 404.536 277.737 405.986 278.915 406.277V406.277Z" fill="#00160A"/>
<path fill-rule="evenodd" clip-rule="evenodd" d="M276.985 396.828C276.799 399.605 277.027 402.41 277.659 405.12C277.925 406.263 279.641 406.474 280.532 405.711C281.424 404.948 281.661 403.678 281.757 402.509C281.899 400.779 281.854 399.035 281.622 397.315C281.502 396.427 281.318 395.51 280.782 394.791C280.246 394.072 279.266 393.612 278.429 393.933C277.363 394.342 277.062 395.689 276.985 396.828V396.828Z" fill="#F6F6F6"/>
<path fill-rule="evenodd" clip-rule="evenodd" d="M274.041 263.146C274.192 262.647 274.836 262.466 275.343 262.585C275.85 262.704 276.282 263.028 276.761 263.233C278.548 263.999 280.596 263.002 282.116 261.789C282.626 261.382 283.445 260.972 283.831 261.499C282.915 263.055 281.284 264.169 279.501 264.456C279.556 265.094 280.337 265.55 280.92 265.283C281.248 265.471 281.2 266.002 280.921 266.258C280.642 266.514 280.239 266.569 279.863 266.613C278.55 266.765 277.113 266.89 276.012 266.16C276.599 265.698 277.187 265.236 277.775 264.774C276.412 264.59 275.103 264.02 274.041 263.146Z" fill="#00160A"/>
<path fill-rule="evenodd" clip-rule="evenodd" d="M342.109 340.842C350.499 340.159 359.091 342.229 366.25 346.659C368.239 347.889 370.444 349.363 372.718 348.814C377.982 347.544 383.62 347.863 388.707 349.719C390.849 350.5 392.791 348.284 394.133 346.442C398.029 341.093 403.124 336.623 408.933 333.456C412.939 340.032 408.881 349.131 412.365 355.999C417.755 366.627 416.323 380.354 408.855 389.64C416.693 397.298 422.022 407.482 423.844 418.287C422.913 418.562 422.301 417.346 422.076 416.401C420.065 407.957 416.071 399.993 410.507 393.331C409.205 391.771 407.075 390.155 405.357 391.24C391.702 399.862 374.391 402.466 358.804 398.242C356.232 397.546 354.406 400.668 353.581 403.202C352.041 407.928 350.502 412.653 348.962 417.379C348.672 409.763 351.418 402.074 356.466 396.366C348.971 387.539 345.315 375.562 346.603 364.055C346.737 362.858 346.909 361.581 346.375 360.5C343.579 354.838 341.653 348.747 340.686 342.507C340.628 342.134 340.58 341.725 340.777 341.404C341.038 340.976 341.609 340.883 342.109 340.842ZM376.14 355.971C373.176 358.692 370.732 361.978 368.978 365.599C367.941 362.127 368.503 358.211 370.474 355.17C367.808 356.167 365.341 357.689 363.254 359.624C363.256 356.731 364.726 353.878 367.08 352.197C366.061 352.227 365.042 352.256 364.023 352.286C365.084 350.969 366.58 350.008 368.219 349.59C360.712 344.237 351.301 341.613 342.107 342.311C343.728 351.894 347.599 361.089 353.319 368.946C350.875 367.947 348.878 365.905 347.933 363.44C346.884 373.318 349.398 383.536 354.911 391.8C355.937 393.338 357.085 394.832 358.574 395.928C361.045 397.748 364.21 398.305 367.266 398.584C379.486 399.7 392.021 397.103 402.792 391.224C404.862 390.094 406.891 388.829 408.532 387.135C410.703 384.894 412.097 381.996 412.994 379.007C415.346 371.165 414.348 362.376 410.297 355.26C409.566 357.443 408.834 359.626 408.102 361.809C407.794 362.73 406.424 363.691 406.162 362.756C409.795 354.146 410.575 344.36 408.35 335.284C400.052 340.791 393.099 348.309 388.256 357.01C388.052 354.983 388.573 352.891 389.703 351.196C384.465 355.209 379.925 360.131 376.347 365.675C375.697 362.488 375.627 359.183 376.14 355.971Z" fill="#00160A"/>
<path fill-rule="evenodd" clip-rule="evenodd" d="M61.8073 264.779C62.5145 264.903 63.2779 264.632 63.7486 264.09C62.3198 263.835 60.9523 263.243 59.7895 262.375C60.2528 261.581 61.4395 262.058 62.295 262.393C64.3671 263.203 66.9543 262.37 68.1647 260.504C68.4903 260.001 69.3625 260.577 69.2668 261.168C69.1711 261.758 68.5886 262.124 68.0638 262.411C67.0609 262.961 66.058 263.511 65.0551 264.06C65.8793 264.134 66.6728 264.511 67.2513 265.103C66.1582 265.993 64.6184 266.011 63.2088 265.985C62.826 265.979 62.4216 265.966 62.0977 265.762C61.7737 265.558 61.5836 265.09 61.8073 264.779Z" fill="#00160A"/>
<path fill-rule="evenodd" clip-rule="evenodd" d="M275.145 249.227C276.279 247.451 279.136 247.143 280.624 248.634C281.478 249.491 281.835 250.718 282.061 251.906C282.367 253.516 282.492 255.159 282.433 256.796C282.378 258.305 282.145 259.87 281.294 261.117C280.444 262.364 278.835 263.197 277.394 262.747C275.237 262.073 274.749 259.291 274.642 257.033C274.586 255.84 274.53 254.647 274.473 253.453C274.405 252.004 274.363 250.449 275.145 249.227ZM276.046 252.126C275.86 254.903 276.088 257.708 276.72 260.418C276.986 261.561 278.702 261.772 279.593 261.009C280.485 260.245 280.722 258.976 280.818 257.807C280.96 256.077 280.915 254.333 280.683 252.613C280.563 251.725 280.379 250.808 279.843 250.089C279.307 249.37 278.327 248.91 277.49 249.231C276.424 249.64 276.123 250.987 276.046 252.126Z" fill="#00160A"/>
<path fill-rule="evenodd" clip-rule="evenodd" d="M62.1696 250.695C61.9835 253.472 62.2113 256.276 62.8431 258.987C63.1096 260.13 64.8249 260.341 65.7164 259.578C66.608 258.814 66.8456 257.545 66.9416 256.375C67.0836 254.646 67.038 252.902 66.8061 251.182C66.6862 250.293 66.502 249.377 65.9661 248.658C65.4302 247.939 64.4505 247.479 63.6133 247.8C62.547 248.209 62.2459 249.556 62.1696 250.695V250.695Z" fill="#F6F6F6"/>
<path fill-rule="evenodd" clip-rule="evenodd" d="M62.5948 261.775C61.0307 260.994 60.6021 258.992 60.4307 257.252C60.2636 255.556 60.1679 253.852 60.1439 252.147C60.1279 251.008 60.1562 249.818 60.6911 248.812C61.2727 247.719 62.4533 246.969 63.6905 246.907C64.9276 246.846 66.1768 247.475 66.8638 248.506C67.3147 249.182 67.5232 249.989 67.6815 250.786C68.0078 252.428 68.1535 254.107 68.1152 255.781C68.078 257.407 67.8369 259.109 66.8756 260.422C65.9143 261.735 64.0504 262.502 62.5948 261.775V261.775ZM62.1773 258.861C62.291 259.402 62.4485 259.968 62.8503 260.348C63.6389 261.093 65.0327 260.721 65.6988 259.865C66.3649 259.008 66.4869 257.858 66.5308 256.774C66.5956 255.174 66.5451 253.569 66.3799 251.976C66.2861 251.072 66.1436 250.139 65.6474 249.378C65.1511 248.617 64.208 248.075 63.3315 248.315C61.9452 248.694 61.6777 250.515 61.6828 251.952C61.6912 254.265 61.7014 256.597 62.1773 258.861V258.861Z" fill="#00160A"/>
<path fill-rule="evenodd" clip-rule="evenodd" d="M352.397 270.511C352.748 265.232 358.057 261.969 361.551 257.995C364.741 254.366 366.612 249.601 366.741 244.771C355.71 244.335 344.734 242.513 334.153 239.36C332.534 238.878 330.864 238.33 329.637 237.169C326.77 234.458 327.48 229.73 328.958 226.073C330.752 221.633 333.358 217.523 336.61 214.007C337.722 212.806 338.928 211.645 339.656 210.179C340.384 208.712 340.537 206.826 339.555 205.516C337.899 203.309 337.551 200.41 337.378 197.657C337.206 194.903 337.127 192.04 335.876 189.581C334.626 187.122 331.785 185.21 329.147 186.017C328.507 185.04 329.771 183.912 330.884 183.559C335.087 182.223 339.795 183.392 343.479 185.816C347.164 188.239 349.959 191.793 352.36 195.492C353.297 196.937 354.883 198.633 356.411 197.839C366.847 192.42 379.584 191.631 390.61 195.719C392.143 196.287 394.499 196.53 394.811 194.926C396.367 186.936 403.035 180.188 411.005 178.537C407.873 180.783 407.684 185.353 408.311 189.157C408.937 192.96 410.042 197.012 408.478 200.535C407.216 203.378 410.395 206.052 412.97 207.799C416.858 210.437 420.334 213.68 423.236 217.376C426.107 221.033 428.5 225.732 427.189 230.192C425.472 236.031 418.601 238.342 412.688 239.783C406.916 241.191 401.144 242.598 395.372 244.005C395.266 249.636 397.276 255.282 400.917 259.578C403.838 263.025 408.082 266.577 407.153 270.998C405.178 266.297 401.473 262.581 398.496 258.441C395.52 254.301 393.174 249.12 394.52 244.202C391.885 243.259 389.12 245.142 387.128 247.107C385.135 249.072 383.033 251.388 380.239 251.545C375.637 251.804 372.764 246.188 368.265 245.183C368.161 248.195 367.373 251.181 365.978 253.852C364.494 256.692 362.362 259.132 360.251 261.543C357.633 264.532 355.015 267.522 352.397 270.511ZM356.685 199.084C353.887 200.445 358.221 205.762 355.716 207.608C354.428 200.619 350.777 194.086 345.497 189.328C342.069 186.237 337.52 183.802 332.984 184.661C335.636 185.703 337.25 188.459 337.944 191.222C338.639 193.985 338.614 196.877 339.097 199.685C339.948 204.627 342.421 209.277 346.043 212.746C344.393 212.725 342.795 211.711 342.072 210.228C336.994 214.793 332.913 220.462 330.196 226.727C329.124 229.198 328.287 232.145 329.614 234.489C330.733 236.467 333.049 237.386 335.211 238.086C342.99 240.605 351.081 242.156 359.239 242.692C364.114 243.012 369.378 243.093 373.274 246.04C374.69 247.111 375.853 248.519 377.396 249.397C378.939 250.274 381.116 250.453 382.317 249.146C387.007 244.046 394.138 242.069 400.952 240.814C407.766 239.56 414.882 238.721 420.823 235.155C423.052 233.817 425.166 231.964 425.887 229.466C426.867 226.068 425.037 222.523 422.97 219.655C418.8 213.871 413.374 208.998 407.178 205.47C406.907 206.543 406.244 207.512 405.342 208.153C405.051 206.938 405.582 205.699 406.007 204.525C408.635 197.266 407.437 189.251 406.208 181.629C398.143 186.282 393.953 196.749 396.578 205.682C395.041 205.968 394.314 203.813 394.463 202.256C394.613 200.699 394.737 198.665 393.295 198.061C381.69 193.197 368 193.579 356.685 199.084Z" fill="#00160A"/>
<path fill-rule="evenodd" clip-rule="evenodd" d="M143.004 364.99C143.814 366.358 143.904 368.127 143.236 369.57C142.882 370.336 141.683 370.309 141.082 369.718C140.48 369.127 140.322 368.23 140.206 367.395C140.1 366.639 140.009 365.842 140.297 365.135C140.585 364.428 141.391 363.873 142.109 364.132C142.506 364.275 142.789 364.627 143.004 364.99V364.99Z" fill="#00160A"/>
<path fill-rule="evenodd" clip-rule="evenodd" d="M155.473 419.1C152.907 412.587 152.051 405.409 153.012 398.475C150.594 401.124 146.133 401.576 143.233 399.465C143.927 406.287 142.505 413.308 139.212 419.322C140.166 413.612 141.119 407.902 142.073 402.192C142.321 400.71 142.286 398.725 140.857 398.26C136.401 396.812 132.635 393.367 130.797 389.057C130.218 387.699 128.431 387.216 127.01 387.616C125.589 388.015 124.455 389.061 123.38 390.072C123.993 387.675 126.196 385.771 128.657 385.51C129.492 384.103 128.296 382.158 126.711 381.749C125.126 381.34 123.456 382.054 122.133 383.018C122.03 381.492 123.886 380.746 125.293 380.146C126.7 379.547 128.074 377.654 126.874 376.706C126.351 376.292 125.608 376.366 124.948 376.46C123.041 376.733 121.133 377.006 119.226 377.279C119.443 375.743 121.438 375.349 122.985 375.23C124.531 375.111 126.528 374.358 126.356 372.816C125.693 366.876 127.131 360.853 129.532 355.379C131.521 350.845 125.668 346.303 126.052 341.366C126.082 340.984 126.173 340.565 126.481 340.337C126.849 340.065 127.365 340.174 127.803 340.309C130.816 341.239 133.61 342.871 135.899 345.04C137.01 346.093 138.8 345.375 140.198 344.751C145.353 342.45 151.395 342.212 156.716 344.1C161.52 345.804 165.782 337.582 170.543 339.404C169.328 343.403 168.113 347.403 166.897 351.402C166.562 352.506 166.245 353.773 166.854 354.752C168.908 358.05 170.153 361.848 170.451 365.722C170.661 368.451 171.19 372.138 173.918 372.352C172.73 372.874 171.419 373.526 171.008 374.757C170.596 375.988 172.003 377.613 173.068 376.87C173.987 376.229 175.472 376.764 175.771 377.844C174.196 377.69 172.488 377.862 171.257 378.855C170.026 379.849 169.544 381.86 170.586 383.049C172.876 382.106 175.579 382.23 177.773 383.378C176.466 384.339 174.67 384.055 173.05 383.958C171.431 383.862 169.458 384.236 168.885 385.753C166.972 390.82 162.271 394.729 156.941 395.686C154.316 396.158 153.895 399.709 154.111 402.368C154.565 407.945 155.019 413.523 155.473 419.1ZM157.593 379.011C156.752 379.779 155.302 380.58 154.679 379.627C158.277 375.766 163.21 373.175 168.43 372.402C169.495 372.245 169.731 370.823 169.654 369.749C169.28 364.465 167.764 359.265 165.24 354.608C164.861 355.587 163.663 356.162 162.663 355.844C165.647 351.361 167.61 346.203 168.362 340.87C163.585 342.85 159.342 346.099 156.184 350.193C155.744 348.622 156.447 346.802 157.828 345.934C151.528 343.622 144.287 344.008 138.268 346.977C138.425 347.954 138.581 348.931 138.738 349.908C135.785 346.331 131.937 343.5 127.645 341.745C129.04 346.956 131.075 351.996 133.688 356.715C132.553 356.961 131.321 355.977 131.308 354.816C128.937 359.976 127.633 365.623 127.503 371.3C127.465 372.932 128.123 375.14 129.746 374.971C134.178 374.512 138.779 376.054 142.04 379.09C139.013 378.216 135.987 377.342 132.96 376.467C131.657 376.091 130.164 375.739 129.022 376.47C127.88 377.201 128.016 379.468 129.372 379.495C132.921 378.46 136.933 379.155 139.928 381.324C136.422 380.544 132.756 380.494 129.231 381.179C128.352 383.301 131.338 384.961 133.635 384.95C135.932 384.939 138.808 384.692 139.923 386.7C137.107 386.553 134.291 386.407 131.475 386.26C132.248 391.278 136.561 395.539 141.588 396.252C142.547 396.388 143.176 397.281 143.89 397.936C146.73 400.54 152.183 398.771 152.953 394.995C159.494 394.795 165.723 390.444 168.164 384.373C164.846 384.844 161.528 385.315 158.211 385.786C158.987 384.288 160.832 383.713 162.51 383.538C164.188 383.363 165.962 383.422 167.45 382.627C168.938 381.831 169.904 379.733 168.839 378.425C164.694 379.882 160.548 381.339 156.402 382.796C157.782 380.74 159.957 379.233 162.366 378.664C164.046 378.267 165.831 378.306 167.438 377.677C169.046 377.048 170.482 375.392 170.027 373.727C165.446 374.019 160.983 375.916 157.593 379.011Z" fill="#00160A"/>
<path fill-rule="evenodd" clip-rule="evenodd" d="M153.438 361.826C152.882 361.797 152.209 361.689 152.003 361.171C153.358 359.636 156.294 360.124 157.079 362.016C155.866 361.952 154.652 361.889 153.438 361.826Z" fill="#00160A"/>
<path fill-rule="evenodd" clip-rule="evenodd" d="M151.358 390.604C151.792 391.128 151.702 391.951 151.293 392.495C150.885 393.04 150.231 393.347 149.575 393.527C148.62 393.79 147.488 393.785 146.761 393.112C145.708 392.138 146.215 390.156 147.509 389.538C148.803 388.92 150.442 389.5 151.358 390.604ZM147.584 390.904C147.255 391.516 147.953 392.27 148.648 392.271C149.343 392.273 149.942 391.811 150.48 391.371C149.773 390.598 148.512 390.406 147.606 390.932L147.584 390.904Z" fill="#00160A"/>
<path fill-rule="evenodd" clip-rule="evenodd" d="M154.994 369.631C154.139 370.061 153.059 369.37 152.736 368.469C152.413 367.569 152.63 366.572 152.878 365.648C153.02 365.121 153.211 364.545 153.685 364.276C154.322 363.914 155.173 364.328 155.543 364.959C155.913 365.591 155.931 366.361 155.939 367.093C155.949 368.048 155.846 369.201 154.994 369.631V369.631Z" fill="#00160A"/>
<path fill-rule="evenodd" clip-rule="evenodd" d="M139.618 390.646C142.187 390.977 144.895 389.734 146.318 387.569C147.741 385.405 147.809 382.426 146.487 380.199C145.788 379.02 144.724 377.552 145.571 376.475C146.001 375.928 146.765 375.788 147.459 375.751C148.219 375.71 149.026 375.757 149.66 376.177C150.295 376.596 150.664 377.494 150.278 378.15C148.754 380.738 148.988 384.249 150.84 386.613C152.693 388.977 156.047 390.043 158.924 389.181C159.45 389.024 160.313 389.077 160.209 389.616C160.184 389.747 160.093 389.855 160.001 389.95C158.375 391.63 155.557 391.356 153.464 390.317C151.518 389.352 149.848 387.837 148.698 385.993C147.67 387.747 146.608 389.54 145.033 390.827C143.459 392.113 141.238 392.807 139.351 392.05C138.833 391.842 138.297 391.219 138.671 390.805C138.895 390.557 139.287 390.604 139.618 390.646Z" fill="#00160A"/>
<path fill-rule="evenodd" clip-rule="evenodd" d="M144.17 361.198C144.299 361.603 143.734 361.848 143.311 361.894C142.51 361.98 141.709 362.067 140.908 362.153C140.289 362.22 139.401 362.039 139.469 361.42C140.57 360.26 142.512 360.018 143.865 360.872C143.993 360.953 144.124 361.053 144.17 361.198Z" fill="#00160A"/>
<path fill-rule="evenodd" clip-rule="evenodd" d="M360.315 406.11C360.155 404.588 360.191 402.799 361.397 401.858C362.457 401.031 363.962 401.227 365.285 401.463C367.386 401.839 369.487 402.215 371.589 402.591C373.23 402.884 374.987 403.166 376.514 402.494C377.732 401.957 379.128 402.532 380.458 402.543C381.544 402.553 382.593 402.181 383.615 401.814C386.752 400.689 389.888 399.563 393.024 398.437C393.601 398.23 394.242 398.023 394.809 398.255C395.671 398.606 395.864 399.718 395.931 400.647C396.007 401.704 396.083 402.762 396.159 403.82C396.252 405.112 396.336 406.461 395.829 407.653C395.322 408.845 394.025 409.809 392.771 409.486C389.533 408.651 386.239 408.032 382.918 407.636C382.249 407.557 381.379 407.604 381.159 408.24C380.655 409.7 378.568 409.466 377.045 409.209C373.554 408.619 369.833 409.538 367.019 411.687C366.265 412.262 365.561 412.929 364.691 413.307C363.822 413.684 362.709 413.704 362.019 413.054C361.548 412.61 361.362 411.95 361.211 411.32C360.799 409.606 360.499 407.864 360.315 406.11ZM376.069 404.894C371.831 404.09 367.573 403.395 363.299 402.81C362.625 402.718 361.997 403.274 361.775 403.918C361.553 404.561 361.639 405.266 361.737 405.939C361.951 407.418 362.212 408.89 362.517 410.352C362.612 410.81 362.723 411.289 363.034 411.639C363.345 411.988 363.923 412.146 364.286 411.851C366.603 409.968 369.345 408.614 372.248 407.919C373.121 407.71 374.027 407.552 374.799 407.094C375.571 406.636 376.191 405.784 376.069 404.894V404.894ZM388.131 401.62C385.875 402.241 383.479 402.95 381.962 404.731C381.501 405.273 381.407 406.425 382.117 406.398C385.662 406.264 389.231 406.817 392.569 408.017C393.278 408.272 394.079 407.764 394.414 407.089C394.749 406.414 394.738 405.626 394.72 404.872C394.686 403.452 394.651 402.032 394.617 400.612C394.611 400.384 394.579 400.112 394.375 400.011C394.238 399.944 394.076 399.983 393.929 400.023C391.996 400.555 390.064 401.088 388.131 401.62ZM377.109 406.89C377.207 407.224 377.349 407.561 377.613 407.788C378.26 408.344 379.349 407.945 379.782 407.21C380.216 406.475 380.172 405.561 380.073 404.713C379.954 403.697 378.437 403.365 377.668 404.04C376.899 404.715 376.819 405.909 377.109 406.89V406.89Z" fill="#00160A"/>
<path fill-rule="evenodd" clip-rule="evenodd" d="M402.358 379.635C400.482 379.405 398.544 379.699 396.819 380.475C396.374 380.675 395.941 380.017 396.134 379.569C396.327 379.12 396.831 378.907 397.291 378.745C399.953 377.808 403.335 377.345 405.233 379.433C404.421 379.989 403.336 379.755 402.358 379.635V379.635Z" fill="#00160A"/>
<path fill-rule="evenodd" clip-rule="evenodd" d="M381.873 389.585C381.917 391.034 380.544 392.212 379.117 392.471C377.69 392.729 376.238 392.304 374.85 391.882C373.642 391.516 373.266 389.819 373.904 388.73C374.541 387.64 375.831 387.101 377.077 386.897C378.103 386.729 379.193 386.746 380.136 387.184C381.079 387.622 381.842 388.545 381.873 389.585V389.585ZM375.182 389.932C375.25 390.366 375.758 390.555 376.185 390.66C377.014 390.863 377.869 391.068 378.713 390.942C379.558 390.817 380.4 390.28 380.619 389.455C379.365 388.158 377.126 387.98 375.683 389.063C375.401 389.274 375.128 389.585 375.182 389.932V389.932Z" fill="#00160A"/>
<path fill-rule="evenodd" clip-rule="evenodd" d="M360.161 382.19C357.657 382.196 355.152 382.202 352.648 382.207C352.12 382.208 351.376 381.931 351.554 381.434C354.169 380.297 357.205 380.159 359.912 381.054C360.41 381.219 360.953 381.891 360.489 382.136C360.39 382.189 360.273 382.19 360.161 382.19V382.19Z" fill="#00160A"/>
<path fill-rule="evenodd" clip-rule="evenodd" d="M387.869 372.66C388.012 371.765 388.258 370.729 389.086 370.361C389.883 370.006 390.851 370.512 391.31 371.254C391.769 371.997 391.846 372.905 391.911 373.775C390.782 373.878 389.652 373.981 388.522 374.084C387.918 374.139 387.774 373.259 387.869 372.66V372.66Z" fill="#00160A"/>
<path fill-rule="evenodd" clip-rule="evenodd" d="M397.675 383.354C397.311 383.278 396.936 383.198 396.632 382.983C396.414 382.828 396.243 382.607 396.148 382.357C398.7 381.281 401.951 382.256 403.489 384.559C401.551 384.157 399.613 383.755 397.675 383.354V383.354Z" fill="#00160A"/>
<path fill-rule="evenodd" clip-rule="evenodd" d="M392.423 367.8C393.072 366.762 394.689 367.249 395.668 367.984C396.633 368.708 397.496 369.567 398.226 370.528C398.194 371.093 397.316 370.965 396.841 370.657C395.368 369.705 393.896 368.752 392.423 367.8Z" fill="#00160A"/>
<path fill-rule="evenodd" clip-rule="evenodd" d="M357.015 384.928C358.048 384.575 359.08 384.222 360.113 383.869C360.527 383.727 360.969 383.584 361.393 383.689C361.818 383.793 362.184 384.254 362.021 384.66C359.993 385.418 357.938 386.107 355.862 386.724C355.533 386.44 355.6 385.878 355.886 385.55C356.172 385.222 356.603 385.068 357.015 384.928Z" fill="#00160A"/>
<path fill-rule="evenodd" clip-rule="evenodd" d="M365.581 371.909C365.976 372.176 366.179 372.64 366.362 373.079C366.605 373.663 366.853 374.292 366.722 374.911C366.59 375.53 365.895 376.064 365.327 375.786C364.683 375.472 363.982 376.625 363.348 376.292C363.047 376.134 362.989 375.737 362.967 375.398C362.908 374.487 362.86 373.521 363.292 372.717C363.724 371.913 364.825 371.398 365.581 371.909Z" fill="#00160A"/>
<path fill-rule="evenodd" clip-rule="evenodd" d="M357.703 371.502C358.655 369.163 361.383 367.698 363.858 368.198C364.195 368.266 364.611 368.518 364.492 368.84C364.429 369.011 364.239 369.092 364.069 369.155C361.947 369.937 359.825 370.72 357.703 371.502Z" fill="#00160A"/>
<path fill-rule="evenodd" clip-rule="evenodd" d="M370.341 383.325C369.808 383.392 369.129 383.341 368.928 382.843C369.286 382.557 369.715 382.254 370.16 382.358C370.606 382.461 370.768 383.24 370.32 383.334L370.341 383.325Z" fill="#00160A"/>
<path fill-rule="evenodd" clip-rule="evenodd" d="M381.019 382.56C381.58 382.467 381.875 381.678 381.514 381.239C381.152 380.8 380.321 380.938 380.122 381.471C379.922 382.004 380.458 382.654 381.019 382.56Z" fill="#00160A"/>
<path fill-rule="evenodd" clip-rule="evenodd" d="M368.553 386.365C367.767 386.252 366.757 385.74 366.998 384.983C367.864 384.484 368.938 384.911 369.928 385.054C370.917 385.197 372.252 384.656 372.089 383.67C372.254 384.086 372.42 384.501 372.585 384.917C373.592 384.648 374.532 384.132 375.298 383.426C375.732 383.028 376.118 382.342 375.734 381.897C374.842 380.865 375.81 378.931 377.171 379.026C378.531 379.121 379.221 381.17 378.195 382.068C377.929 382.301 378.197 382.729 378.473 382.95C380.397 384.495 383.079 385.044 385.456 384.379C386.518 384.082 387.876 383.645 388.551 384.518C385.161 386.966 380.01 386.54 377.068 383.57C375.413 386.27 371.688 386.819 368.553 386.365Z" fill="#00160A"/>
<path fill-rule="evenodd" clip-rule="evenodd" d="M384.526 381.72C384.853 381.867 384.904 382.396 384.611 382.603C384.319 382.81 383.837 382.586 383.806 382.229C383.93 381.964 384.216 381.783 384.509 381.786L384.526 381.72Z" fill="#00160A"/>
<path fill-rule="evenodd" clip-rule="evenodd" d="M372.216 382.093C372.558 382.618 373.562 381.965 373.22 381.439C372.878 380.914 371.874 381.567 372.216 382.093Z" fill="#00160A"/>
<path fill-rule="evenodd" clip-rule="evenodd" d="M343.724 225.724C342.408 225.87 340.988 226.191 339.823 225.562C341.202 224.265 343.26 224.013 345.15 224.106C348.354 224.265 351.514 225.238 354.252 226.909C353.677 227.968 352.09 227.447 351 226.934C348.747 225.873 346.199 225.449 343.724 225.724Z" fill="#00160A"/>
<path fill-rule="evenodd" clip-rule="evenodd" d="M390.002 214.716C389.792 213.924 389.781 213.277 390.503 212.891C391.554 212.328 394.873 212.38 395.232 213.199C395.59 214.017 394.226 217.78 392.312 217.78C391.546 217.78 390.211 215.508 390.002 214.716Z" fill="#00160A"/>
<path fill-rule="evenodd" clip-rule="evenodd" d="M411.058 224.039C406.938 224.295 402.858 225.195 399.012 226.696C398.485 226.902 397.673 226.982 397.553 226.429C398.225 225.301 399.573 224.795 400.833 224.426C403.655 223.602 406.559 223.061 409.488 222.816C409.911 222.781 410.364 222.758 410.734 222.966C411.104 223.174 411.322 223.706 411.058 224.039V224.039Z" fill="#00160A"/>
<path fill-rule="evenodd" clip-rule="evenodd" d="M411.889 228.661C408.63 228.952 405.372 229.244 402.114 229.535C401.519 229.588 400.629 229.191 400.972 228.702C404.323 227.655 407.842 227.145 411.354 227.197C412.222 227.21 413.23 227.335 413.686 228.074C413.225 228.523 412.53 228.604 411.889 228.661V228.661Z" fill="#00160A"/>
<path fill-rule="evenodd" clip-rule="evenodd" d="M363.973 218.053C363.283 218.865 361.882 218.632 361.142 217.865C360.403 217.097 360.15 215.996 359.928 214.953C359.812 214.41 359.71 213.792 360.034 213.34C360.374 212.866 365.101 212.832 365.326 213.239C365.551 213.645 365.412 213.988 365.326 214.304C365.17 214.877 364.473 217.465 363.973 218.053Z" fill="#00160A"/>
<path fill-rule="evenodd" clip-rule="evenodd" d="M339.291 230.942C343.4 229.249 347.987 228.734 352.369 229.471C352.838 229.55 353.354 229.674 353.621 230.068C353.888 230.462 353.631 231.166 353.159 231.099C348.068 230.375 342.541 230.428 338.209 233.198C337.754 232.939 337.722 232.248 338.013 231.813C338.304 231.377 338.807 231.141 339.291 230.942Z" fill="#00160A"/>
<path fill-rule="evenodd" clip-rule="evenodd" d="M369.461 234.991C369.25 234.382 369.704 233.636 370.342 233.545C370.596 233.711 370.764 234.004 370.778 234.307C370.578 234.777 370.056 235.087 369.549 235.036L369.461 234.991Z" fill="#00160A"/>
<path fill-rule="evenodd" clip-rule="evenodd" d="M362.814 208.616C363.525 208.627 364.502 209.103 364.19 209.743C361.096 209.925 358.04 210.744 355.269 212.134C354.861 212.093 354.667 211.551 354.825 211.172C354.982 210.793 355.358 210.556 355.718 210.36C357.882 209.185 360.352 208.578 362.814 208.616Z" fill="#00160A"/>
<path fill-rule="evenodd" clip-rule="evenodd" d="M380.084 234.471C380.535 233.985 381.443 234.065 381.802 234.622C381.45 235.294 380.27 235.227 379.996 234.52L380.084 234.471Z" fill="#00160A"/>
<path fill-rule="evenodd" clip-rule="evenodd" d="M383.22 234.148C383.533 233.691 384.424 234.086 384.297 234.625C384.165 234.897 383.87 235.081 383.568 235.081C383.221 234.948 383.05 234.482 383.228 234.155L383.22 234.148Z" fill="#00160A"/>
<path fill-rule="evenodd" clip-rule="evenodd" d="M372.574 231.667C372.26 232.123 371.369 231.728 371.496 231.189C371.628 230.917 371.923 230.733 372.225 230.733C372.573 230.867 372.744 231.332 372.565 231.659L372.574 231.667Z" fill="#00160A"/>
<path fill-rule="evenodd" clip-rule="evenodd" d="M367.315 232.913C367.287 233.443 367.946 233.87 368.418 233.629C368.89 233.388 368.931 232.604 368.486 232.316C368.041 232.027 367.342 232.384 367.315 232.913Z" fill="#00160A"/>
<path fill-rule="evenodd" clip-rule="evenodd" d="M380.736 232.583C381.186 232.92 381.952 232.592 382.019 232.034C382.085 231.476 381.419 230.976 380.902 231.198C380.385 231.419 380.286 232.246 380.736 232.583Z" fill="#00160A"/>
<path fill-rule="evenodd" clip-rule="evenodd" d="M389.091 210.2C391.737 208.285 395.4 209.163 398.524 210.12C399.013 210.269 399.625 210.718 399.342 211.145C399.174 211.399 398.805 211.391 398.502 211.354C395.365 210.969 392.228 210.585 389.091 210.2Z" fill="#00160A"/>
<path fill-rule="evenodd" clip-rule="evenodd" d="M377.256 232.584C378.208 235.543 381.631 237.462 384.652 236.731C385.981 236.41 387.499 235.688 388.589 236.513C386.678 238.113 383.988 238.735 381.568 238.137C379.149 237.539 377.059 235.735 376.113 233.429C374.24 236.04 371.269 237.837 368.085 238.283C367.61 238.35 367.07 238.369 366.711 238.051C366.351 237.733 366.445 236.974 366.925 236.941C369.552 236.758 372.101 235.604 373.972 233.751C374.988 232.744 375.823 231.127 375.01 229.95C374.254 228.853 373.645 227.655 373.206 226.397C373.043 225.931 372.917 225.371 373.217 224.978C373.438 224.688 373.824 224.588 374.18 224.507C375.261 224.259 376.379 224.01 377.469 224.216C378.559 224.423 379.62 225.211 379.781 226.308C380.121 228.626 376.538 230.353 377.256 232.584Z" fill="#00160A"/>
<path fill-rule="evenodd" clip-rule="evenodd" d="M161.584 224.592C161.819 223.909 163.091 224.146 163.065 224.867C162.798 225.546 161.537 225.296 161.549 224.568L161.584 224.592Z" fill="#00160A"/>
<path fill-rule="evenodd" clip-rule="evenodd" d="M150.108 227.732C149.963 227.004 148.572 227.281 148.717 228.009C148.861 228.737 150.252 228.461 150.108 227.732Z" fill="#00160A"/>
<path fill-rule="evenodd" clip-rule="evenodd" d="M152.081 228.966C152.414 228.556 153.001 228.371 153.51 228.517C153.676 228.724 153.728 229.017 153.644 229.269C153.267 229.423 152.89 229.576 152.513 229.73C152.353 229.489 152.193 229.248 152.034 229.007L152.081 228.966Z" fill="#00160A"/>
<path fill-rule="evenodd" clip-rule="evenodd" d="M152.249 227.239C151.996 227.063 151.826 226.772 151.796 226.465C152.071 225.894 153.044 225.888 153.327 226.455C153.067 226.829 152.682 227.115 152.248 227.255L152.249 227.239Z" fill="#00160A"/>
<path fill-rule="evenodd" clip-rule="evenodd" d="M143.384 229.121C143.007 229.612 142.156 228.974 142.258 228.363C142.36 227.752 142.931 227.355 143.416 226.969C144.448 226.144 145.281 225.069 146.405 224.375C147.53 223.681 149.14 223.481 150.078 224.412C147.439 225.256 145.07 226.923 143.384 229.121Z" fill="#00160A"/>
<path fill-rule="evenodd" clip-rule="evenodd" d="M140.159 222.441C141.688 221.01 143.59 219.98 145.624 219.481C146.058 219.375 146.533 219.295 146.939 219.482C147.345 219.669 147.603 220.228 147.33 220.582C144.742 221.042 142.306 222.324 140.462 224.198C140.126 224.539 139.49 224.127 139.473 223.65C139.456 223.172 139.81 222.768 140.159 222.441Z" fill="#00160A"/>
<path fill-rule="evenodd" clip-rule="evenodd" d="M159.521 225.057C159.475 224.706 160.076 224.898 160.256 225.203C160.011 225.568 159.767 225.932 159.522 226.297C159.015 226.133 158.991 225.263 159.489 225.072L159.521 225.057Z" fill="#00160A"/>
<path fill-rule="evenodd" clip-rule="evenodd" d="M174.648 223.149C172.435 222.468 170.222 221.787 168.009 221.105C167.492 220.946 166.925 220.748 166.662 220.275C169.717 219.583 173.076 220.401 175.471 222.42C175.571 222.505 175.676 222.6 175.709 222.728C175.825 223.18 175.095 223.287 174.648 223.149Z" fill="#00160A"/>
<path fill-rule="evenodd" clip-rule="evenodd" d="M159.991 227.128C160.237 226.833 160.761 226.841 160.998 227.144C161.235 227.446 161.117 227.957 160.772 228.125C160.257 228.074 159.815 227.611 159.789 227.094L159.991 227.128Z" fill="#00160A"/>
<path fill-rule="evenodd" clip-rule="evenodd" d="M173.085 227.947C170.79 227.142 168.495 226.336 166.2 225.53C166.012 225.464 165.813 225.391 165.693 225.232C165.429 224.885 165.734 224.344 166.151 224.215C166.568 224.085 167.015 224.23 167.427 224.375C168.663 224.808 169.9 225.242 171.137 225.675C172.195 226.046 173.5 226.905 173.085 227.947V227.947Z" fill="#00160A"/>
<path fill-rule="evenodd" clip-rule="evenodd" d="M473.667 128.285C482 131.66 487.669 139.783 490.298 148.381C492.928 156.978 492.954 166.125 492.957 175.115C492.984 241.726 493.011 308.337 493.038 374.947C493.038 384.692 492.963 394.82 488.735 403.6C484.86 411.65 477.524 417.96 468.985 420.588C462.789 422.495 456.191 422.51 449.708 422.51C326.947 422.488 204.186 422.467 81.4245 422.445C75.3085 422.444 68.769 422.318 63.7345 418.845C55.6726 413.284 54.8754 401.89 54.8723 392.096C54.8482 315.989 54.8241 239.883 54.8 163.776C54.8 158.119 54.82 152.324 56.7746 147.016C60.1485 137.853 68.9127 131.52 78.2298 128.6C87.5468 125.68 97.4897 125.665 107.253 125.675C129.347 125.7 151.441 125.724 173.535 125.748C267.846 125.851 362.157 125.954 456.468 126.057C462.287 126.063 468.274 126.101 473.667 128.285V128.285ZM268.278 420.91C268.226 372.481 268.173 324.052 268.121 275.623C198.465 275.651 128.809 275.68 59.1522 275.708C58.5528 275.708 57.8817 275.738 57.4683 276.172C57.0802 276.58 57.057 277.202 57.0566 277.765C57.0254 318.404 56.9942 359.043 56.9628 399.682C56.9628 401.799 56.9628 403.935 57.4097 406.004C58.8919 412.85 65.1331 417.855 71.8227 419.93C78.5123 422.006 85.6748 421.691 92.6741 421.43C119.775 420.418 146.904 420.508 174.024 420.598C205.442 420.702 236.86 420.806 268.278 420.91ZM270.067 275.835C270.108 324.136 270.148 372.437 270.189 420.738C331.244 420.681 392.299 420.624 453.354 420.567C457.945 420.563 462.586 420.553 467.052 419.485C477.558 416.973 486.248 408.36 489.342 398.01C491.17 391.895 491.17 385.405 491.155 379.023C491.077 344.542 490.998 310.061 490.92 275.58C417.302 275.665 343.685 275.75 270.067 275.835ZM270.045 128.22C270.108 176.647 270.172 225.074 270.236 273.501C343.182 273.506 416.128 273.511 489.074 273.516C489.682 273.516 490.379 273.474 490.75 272.992C491.016 272.647 491.027 272.176 491.027 271.741C491.038 236.442 491.049 201.143 491.059 165.844C491.059 160.633 491.054 155.356 489.747 150.312C486.176 136.528 471.99 126.321 457.786 127.316C447.253 128.054 436.684 128.064 426.125 128.074C374.098 128.122 322.071 128.171 270.045 128.22ZM268.274 273.314C268.216 224.892 268.159 176.471 268.101 128.05C207.957 128.029 147.812 128.007 87.6683 127.986C73.4839 127.981 60.1031 139.145 57.5672 153.101C56.906 156.74 56.9101 160.462 56.9151 164.161C56.9761 200.554 57.0361 236.948 57.0961 273.341C127.488 273.633 197.882 273.624 268.274 273.314Z" fill="#00160A"/>
<path fill-rule="evenodd" clip-rule="evenodd" d="M157.823 225.062C157.395 226.181 157.939 227.478 158.799 228.312C160.053 229.529 161.985 229.996 163.656 229.485C164.859 229.118 166.316 228.346 167.206 229.234C164.555 231.905 159.52 231.529 157.294 228.493C156.599 230.306 155.007 231.749 153.136 232.264C151.264 232.78 149.158 232.355 147.633 231.153C148.753 230.224 150.415 230.949 151.871 230.958C153.411 230.966 154.916 230.024 155.581 228.636C156.246 227.247 156.037 225.484 155.065 224.29C154.074 223.072 153.307 221.672 152.813 220.182C152.699 219.837 152.599 219.461 152.71 219.114C152.936 218.405 153.847 218.237 154.59 218.2C156.115 218.123 157.641 218.082 159.167 218.076C159.9 218.073 160.789 218.172 161.096 218.837C161.299 219.276 161.153 219.791 160.975 220.24C160.511 221.41 159.844 222.499 159.012 223.443C158.567 223.949 158.063 224.432 157.823 225.062Z" fill="#00160A"/>
<path fill-rule="evenodd" clip-rule="evenodd" d="M170.87 195.265C168.615 194.845 166.239 195.098 164.122 195.982C163.827 196.105 163.488 196.239 163.204 196.094C162.858 195.917 162.822 195.398 163.037 195.074C163.253 194.75 163.631 194.579 163.994 194.44C167.738 193.004 172.106 193.298 175.625 195.221C174.284 196.154 172.476 195.563 170.87 195.265V195.265Z" fill="#00160A"/>
<path fill-rule="evenodd" clip-rule="evenodd" d="M169.766 206.666C169.575 207.038 169.346 207.421 168.974 207.611C168.421 207.892 167.703 207.629 167.326 207.137C166.949 206.644 166.857 205.985 166.903 205.367C166.997 204.103 168.091 202.685 169.283 203.113C170.562 203.572 170.384 205.456 169.766 206.666V206.666Z" fill="#00160A"/>
<path fill-rule="evenodd" clip-rule="evenodd" d="M147.87 204.506C148.005 205.58 147.53 206.783 146.548 207.238C145.566 207.692 144.168 207.076 144.063 205.999C144.027 205.624 144.136 205.252 144.251 204.893C144.585 203.846 145.272 202.616 146.367 202.71C147.209 202.782 147.765 203.667 147.87 204.506Z" fill="#00160A"/>
<path fill-rule="evenodd" clip-rule="evenodd" d="M138.305 196.809C138.129 196.248 138.809 195.819 139.371 195.643C142.678 194.61 146.252 194.446 149.64 195.173C150.138 195.28 150.687 195.445 150.935 195.89C151.184 196.334 150.803 197.063 150.319 196.904C146.992 195.81 143.297 195.871 140.008 197.074C139.4 197.297 138.497 197.427 138.305 196.809V196.809Z" fill="#00160A"/>
<path fill-rule="evenodd" clip-rule="evenodd" d="M187.128 168.542C186.803 173.701 186.478 178.874 186.782 184.034C187.02 188.05 187.638 192.044 187.695 196.067C187.858 207.694 183.3 218.955 177.099 228.792C191.986 238.805 203.209 254.143 208.247 271.362C206.101 270.024 205.178 267.429 204.276 265.065C199.301 252.013 190.544 240.428 179.345 232.079C177.739 230.882 175.01 229.977 174.122 231.772C172.115 235.829 169.149 239.407 165.535 242.131C164.224 243.12 162.757 244.096 161.733 245.337C161.742 245.439 161.746 245.541 161.746 245.644C161.746 247.742 160.045 249.443 157.946 249.443C156.52 249.443 155.277 248.657 154.627 247.495C145.168 243.336 137.472 235.263 133.851 225.575C126.935 230.372 122.948 238.534 121.419 246.81C119.89 255.086 120.54 263.591 121.195 271.982C120.504 272.45 119.858 271.319 119.779 270.489C118.981 262.088 118.533 253.534 120.276 245.277C122.019 237.02 126.185 228.994 133.067 224.11C126.68 210.205 129.164 193.147 121.372 179.977C120.91 179.195 120.52 177.976 121.33 177.564C121.631 177.411 121.99 177.459 122.322 177.515C127.754 178.437 132.931 180.826 137.157 184.362C138.247 185.274 139.878 184.609 141.152 183.978C150.942 179.13 162.632 178.261 173.03 181.609C175.643 176.589 179.492 172.219 184.14 168.991C185.037 168.369 186.321 167.807 187.128 168.542ZM153.546 236.391C156.897 236.685 160.311 236.975 163.594 236.246C171.105 234.579 176.493 227.934 179.934 221.053C183.874 213.173 186.082 204.433 186.356 195.628C183.926 197.582 181.497 199.535 179.068 201.489C177.629 202.646 176.057 204.071 176.085 205.917C176.124 208.542 174.498 211.119 172.111 212.213C169.725 213.307 166.711 212.857 164.748 211.114C162.532 209.147 161.274 205.585 158.322 205.325C154.841 205.02 153.183 209.483 150.382 211.572C146.813 214.234 141.052 212.235 139.271 208.155C138.932 207.378 139.053 206.001 138.277 205.528C135.801 204.021 133.067 203.966 129.841 204.073C130.415 211.103 132.117 218.039 134.861 224.537C136.077 227.416 137.558 230.291 139.945 232.308C143.621 235.417 148.751 235.971 153.546 236.391ZM173.715 183.203C172.632 185.27 170.815 187.856 168.637 187.021C170.036 185.822 171.245 184.402 172.204 182.829C161.364 179.739 149.354 180.971 139.367 186.198C140.227 187.239 141.284 188.115 142.465 188.767C141.215 189.958 139.286 188.499 138.103 187.241C134.077 182.96 128.573 180.096 122.757 179.256C125.144 183.085 127.35 190.672 129.377 202.017C132.66 202.759 134.867 203.142 135.998 203.167C137.299 203.194 138.884 203.059 139.453 201.889C140.956 198.796 144.719 196.992 148.071 197.758C151.422 198.523 154.03 201.782 154.041 205.22C156.215 203.796 159.124 203.569 161.491 204.641C161.738 201.715 163.955 199.057 166.789 198.288C169.623 197.52 172.878 198.694 174.569 201.094C175.305 202.138 176.933 201.371 177.909 200.547C179.931 198.839 181.953 197.131 183.975 195.423C185.114 194.461 186.368 193.213 186.129 191.74C184.946 184.45 184.798 176.992 185.691 169.66C180.687 173.123 176.539 177.813 173.715 183.203ZM168.547 235.695C163.68 239.001 157.257 238.424 151.417 237.717C148.226 237.331 144.925 236.907 142.182 235.233C141.619 234.888 140.88 234.495 140.359 234.901C143.629 238.981 147.863 242.284 152.616 244.462C153.323 244.786 154.365 244.977 154.699 244.276C155.469 242.663 157.806 242.066 159.256 243.111C160.435 243.961 162.065 243.144 163.23 242.275C165.847 240.323 168.235 238.066 170.331 235.563C170.024 234.955 169.11 235.313 168.547 235.695ZM140.95 208.302C142.417 210.779 145.764 211.946 148.452 210.918C151.141 209.891 152.857 206.789 152.299 203.966C151.741 201.142 148.974 198.926 146.097 198.999C143.219 199.072 140.568 201.424 140.153 204.273C139.952 205.654 140.238 207.101 140.95 208.302ZM163.3 204.021C162.955 206.066 163.756 208.223 165.207 209.705C166.273 210.794 167.742 211.563 169.265 211.507C171.988 211.406 173.968 208.803 174.808 206.211C175.027 205.535 175.199 204.817 175.066 204.119C174.893 203.213 174.235 202.481 173.548 201.866C171.823 200.322 169.497 199.152 167.241 199.671C165.219 200.135 163.646 201.975 163.3 204.021Z" fill="#00160A"/>
</svg>
